G04 #@! TF.GenerationSoftware,KiCad,Pcbnew,(5.1.9)-1*
G04 #@! TF.CreationDate,2023-07-24T12:28:25+01:00*
G04 #@! TF.ProjectId,ezPLAv2.0_TestPCB,657a504c-4176-4322-9e30-5f5465737450,v2.0 TEST PCB*
G04 #@! TF.SameCoordinates,Original*
G04 #@! TF.FileFunction,Legend,Bot*
G04 #@! TF.FilePolarity,Positive*
%FSLAX46Y46*%
G04 Gerber Fmt 4.6, Leading zero omitted, Abs format (unit mm)*
G04 Created by KiCad (PCBNEW (5.1.9)-1) date 2023-07-24 12:28:25*
%MOMM*%
%LPD*%
G01*
G04 APERTURE LIST*
%ADD10C,0.125000*%
%ADD11C,0.150000*%
%ADD12C,0.120000*%
%ADD13R,1.600000X1.600000*%
%ADD14O,1.600000X1.600000*%
%ADD15O,1.700000X1.700000*%
%ADD16R,1.700000X1.700000*%
%ADD17C,1.422400*%
%ADD18R,1.422400X1.422400*%
%ADD19C,1.600000*%
G04 APERTURE END LIST*
D10*
X147667857Y-144154464D02*
X147667857Y-144821130D01*
X147846428Y-143773511D02*
X148025000Y-144487797D01*
X147560714Y-144487797D01*
X146310714Y-143868750D02*
X146382142Y-143821130D01*
X146489285Y-143821130D01*
X146596428Y-143868750D01*
X146667857Y-143963988D01*
X146703571Y-144059226D01*
X146739285Y-144249702D01*
X146739285Y-144392559D01*
X146703571Y-144583035D01*
X146667857Y-144678273D01*
X146596428Y-144773511D01*
X146489285Y-144821130D01*
X146417857Y-144821130D01*
X146310714Y-144773511D01*
X146275000Y-144725892D01*
X146275000Y-144392559D01*
X146417857Y-144392559D01*
X145632142Y-144821130D02*
X145632142Y-144297321D01*
X145667857Y-144202083D01*
X145739285Y-144154464D01*
X145882142Y-144154464D01*
X145953571Y-144202083D01*
X145632142Y-144773511D02*
X145703571Y-144821130D01*
X145882142Y-144821130D01*
X145953571Y-144773511D01*
X145989285Y-144678273D01*
X145989285Y-144583035D01*
X145953571Y-144487797D01*
X145882142Y-144440178D01*
X145703571Y-144440178D01*
X145632142Y-144392559D01*
X145382142Y-144154464D02*
X145096428Y-144154464D01*
X145275000Y-143821130D02*
X145275000Y-144678273D01*
X145239285Y-144773511D01*
X145167857Y-144821130D01*
X145096428Y-144821130D01*
X144560714Y-144773511D02*
X144632142Y-144821130D01*
X144775000Y-144821130D01*
X144846428Y-144773511D01*
X144882142Y-144678273D01*
X144882142Y-144297321D01*
X144846428Y-144202083D01*
X144775000Y-144154464D01*
X144632142Y-144154464D01*
X144560714Y-144202083D01*
X144525000Y-144297321D01*
X144525000Y-144392559D01*
X144882142Y-144487797D01*
X140650000Y-143916369D02*
X140614285Y-143868750D01*
X140542857Y-143821130D01*
X140364285Y-143821130D01*
X140292857Y-143868750D01*
X140257142Y-143916369D01*
X140221428Y-144011607D01*
X140221428Y-144106845D01*
X140257142Y-144249702D01*
X140685714Y-144821130D01*
X140221428Y-144821130D01*
X138935714Y-143868750D02*
X139007142Y-143821130D01*
X139114285Y-143821130D01*
X139221428Y-143868750D01*
X139292857Y-143963988D01*
X139328571Y-144059226D01*
X139364285Y-144249702D01*
X139364285Y-144392559D01*
X139328571Y-144583035D01*
X139292857Y-144678273D01*
X139221428Y-144773511D01*
X139114285Y-144821130D01*
X139042857Y-144821130D01*
X138935714Y-144773511D01*
X138900000Y-144725892D01*
X138900000Y-144392559D01*
X139042857Y-144392559D01*
X138257142Y-144821130D02*
X138257142Y-144297321D01*
X138292857Y-144202083D01*
X138364285Y-144154464D01*
X138507142Y-144154464D01*
X138578571Y-144202083D01*
X138257142Y-144773511D02*
X138328571Y-144821130D01*
X138507142Y-144821130D01*
X138578571Y-144773511D01*
X138614285Y-144678273D01*
X138614285Y-144583035D01*
X138578571Y-144487797D01*
X138507142Y-144440178D01*
X138328571Y-144440178D01*
X138257142Y-144392559D01*
X138007142Y-144154464D02*
X137721428Y-144154464D01*
X137900000Y-143821130D02*
X137900000Y-144678273D01*
X137864285Y-144773511D01*
X137792857Y-144821130D01*
X137721428Y-144821130D01*
X137185714Y-144773511D02*
X137257142Y-144821130D01*
X137400000Y-144821130D01*
X137471428Y-144773511D01*
X137507142Y-144678273D01*
X137507142Y-144297321D01*
X137471428Y-144202083D01*
X137400000Y-144154464D01*
X137257142Y-144154464D01*
X137185714Y-144202083D01*
X137150000Y-144297321D01*
X137150000Y-144392559D01*
X137507142Y-144487797D01*
D11*
X158327380Y-144160714D02*
X158327380Y-144827380D01*
X158565476Y-143779761D02*
X158803571Y-144494047D01*
X158184523Y-144494047D01*
X157803571Y-144446428D02*
X157041666Y-144446428D01*
X156708333Y-143827380D02*
X156136904Y-143827380D01*
X156422619Y-144827380D02*
X156422619Y-143827380D01*
X155803571Y-144827380D02*
X155803571Y-144160714D01*
X155803571Y-143827380D02*
X155851190Y-143875000D01*
X155803571Y-143922619D01*
X155755952Y-143875000D01*
X155803571Y-143827380D01*
X155803571Y-143922619D01*
X155327380Y-144827380D02*
X155327380Y-144160714D01*
X155327380Y-144255952D02*
X155279761Y-144208333D01*
X155184523Y-144160714D01*
X155041666Y-144160714D01*
X154946428Y-144208333D01*
X154898809Y-144303571D01*
X154898809Y-144827380D01*
X154898809Y-144303571D02*
X154851190Y-144208333D01*
X154755952Y-144160714D01*
X154613095Y-144160714D01*
X154517857Y-144208333D01*
X154470238Y-144303571D01*
X154470238Y-144827380D01*
X153994047Y-144827380D02*
X153994047Y-144160714D01*
X153994047Y-143827380D02*
X154041666Y-143875000D01*
X153994047Y-143922619D01*
X153946428Y-143875000D01*
X153994047Y-143827380D01*
X153994047Y-143922619D01*
X153517857Y-144160714D02*
X153517857Y-144827380D01*
X153517857Y-144255952D02*
X153470238Y-144208333D01*
X153375000Y-144160714D01*
X153232142Y-144160714D01*
X153136904Y-144208333D01*
X153089285Y-144303571D01*
X153089285Y-144827380D01*
X152184523Y-144160714D02*
X152184523Y-144970238D01*
X152232142Y-145065476D01*
X152279761Y-145113095D01*
X152375000Y-145160714D01*
X152517857Y-145160714D01*
X152613095Y-145113095D01*
X152184523Y-144779761D02*
X152279761Y-144827380D01*
X152470238Y-144827380D01*
X152565476Y-144779761D01*
X152613095Y-144732142D01*
X152660714Y-144636904D01*
X152660714Y-144351190D01*
X152613095Y-144255952D01*
X152565476Y-144208333D01*
X152470238Y-144160714D01*
X152279761Y-144160714D01*
X152184523Y-144208333D01*
X151708333Y-144446428D02*
X150946428Y-144446428D01*
X150517857Y-143922619D02*
X150470238Y-143875000D01*
X150375000Y-143827380D01*
X150136904Y-143827380D01*
X150041666Y-143875000D01*
X149994047Y-143922619D01*
X149946428Y-144017857D01*
X149946428Y-144113095D01*
X149994047Y-144255952D01*
X150565476Y-144827380D01*
X149946428Y-144827380D01*
X138353854Y-102611904D02*
X138810997Y-102611904D01*
X138582425Y-102611904D02*
X138482425Y-101811904D01*
X138572901Y-101926190D01*
X138658616Y-102002380D01*
X138739568Y-102040476D01*
X158964285Y-100904761D02*
X159059523Y-100952380D01*
X159250000Y-100952380D01*
X159345238Y-100904761D01*
X159392857Y-100809523D01*
X159392857Y-100428571D01*
X159345238Y-100333333D01*
X159250000Y-100285714D01*
X159059523Y-100285714D01*
X158964285Y-100333333D01*
X158916666Y-100428571D01*
X158916666Y-100523809D01*
X159392857Y-100619047D01*
X158583333Y-100285714D02*
X158059523Y-100285714D01*
X158583333Y-100952380D01*
X158059523Y-100952380D01*
X157107142Y-100857142D02*
X157154761Y-100904761D01*
X157297619Y-100952380D01*
X157392857Y-100952380D01*
X157535714Y-100904761D01*
X157630952Y-100809523D01*
X157678571Y-100714285D01*
X157726190Y-100523809D01*
X157726190Y-100380952D01*
X157678571Y-100190476D01*
X157630952Y-100095238D01*
X157535714Y-100000000D01*
X157392857Y-99952380D01*
X157297619Y-99952380D01*
X157154761Y-100000000D01*
X157107142Y-100047619D01*
X156535714Y-100952380D02*
X156630952Y-100904761D01*
X156678571Y-100857142D01*
X156726190Y-100761904D01*
X156726190Y-100476190D01*
X156678571Y-100380952D01*
X156630952Y-100333333D01*
X156535714Y-100285714D01*
X156392857Y-100285714D01*
X156297619Y-100333333D01*
X156250000Y-100380952D01*
X156202380Y-100476190D01*
X156202380Y-100761904D01*
X156250000Y-100857142D01*
X156297619Y-100904761D01*
X156392857Y-100952380D01*
X156535714Y-100952380D01*
X155773809Y-100285714D02*
X155773809Y-100952380D01*
X155773809Y-100380952D02*
X155726190Y-100333333D01*
X155630952Y-100285714D01*
X155488095Y-100285714D01*
X155392857Y-100333333D01*
X155345238Y-100428571D01*
X155345238Y-100952380D01*
X155011904Y-100285714D02*
X154630952Y-100285714D01*
X154869047Y-99952380D02*
X154869047Y-100809523D01*
X154821428Y-100904761D01*
X154726190Y-100952380D01*
X154630952Y-100952380D01*
X153916666Y-100904761D02*
X154011904Y-100952380D01*
X154202380Y-100952380D01*
X154297619Y-100904761D01*
X154345238Y-100809523D01*
X154345238Y-100428571D01*
X154297619Y-100333333D01*
X154202380Y-100285714D01*
X154011904Y-100285714D01*
X153916666Y-100333333D01*
X153869047Y-100428571D01*
X153869047Y-100523809D01*
X154345238Y-100619047D01*
X153440476Y-100285714D02*
X153440476Y-100952380D01*
X153440476Y-100380952D02*
X153392857Y-100333333D01*
X153297619Y-100285714D01*
X153154761Y-100285714D01*
X153059523Y-100333333D01*
X153011904Y-100428571D01*
X153011904Y-100952380D01*
X152678571Y-100285714D02*
X152297619Y-100285714D01*
X152535714Y-99952380D02*
X152535714Y-100809523D01*
X152488095Y-100904761D01*
X152392857Y-100952380D01*
X152297619Y-100952380D01*
X152011904Y-100904761D02*
X151916666Y-100952380D01*
X151726190Y-100952380D01*
X151630952Y-100904761D01*
X151583333Y-100809523D01*
X151583333Y-100761904D01*
X151630952Y-100666666D01*
X151726190Y-100619047D01*
X151869047Y-100619047D01*
X151964285Y-100571428D01*
X152011904Y-100476190D01*
X152011904Y-100428571D01*
X151964285Y-100333333D01*
X151869047Y-100285714D01*
X151726190Y-100285714D01*
X151630952Y-100333333D01*
X150392857Y-100571428D02*
X149630952Y-100571428D01*
X147821428Y-100857142D02*
X147869047Y-100904761D01*
X148011904Y-100952380D01*
X148107142Y-100952380D01*
X148250000Y-100904761D01*
X148345238Y-100809523D01*
X148392857Y-100714285D01*
X148440476Y-100523809D01*
X148440476Y-100380952D01*
X148392857Y-100190476D01*
X148345238Y-100095238D01*
X148250000Y-100000000D01*
X148107142Y-99952380D01*
X148011904Y-99952380D01*
X147869047Y-100000000D01*
X147821428Y-100047619D01*
X146821428Y-100857142D02*
X146869047Y-100904761D01*
X147011904Y-100952380D01*
X147107142Y-100952380D01*
X147250000Y-100904761D01*
X147345238Y-100809523D01*
X147392857Y-100714285D01*
X147440476Y-100523809D01*
X147440476Y-100380952D01*
X147392857Y-100190476D01*
X147345238Y-100095238D01*
X147250000Y-100000000D01*
X147107142Y-99952380D01*
X147011904Y-99952380D01*
X146869047Y-100000000D01*
X146821428Y-100047619D01*
X146392857Y-100571428D02*
X145630952Y-100571428D01*
X144821428Y-100428571D02*
X144678571Y-100476190D01*
X144630952Y-100523809D01*
X144583333Y-100619047D01*
X144583333Y-100761904D01*
X144630952Y-100857142D01*
X144678571Y-100904761D01*
X144773809Y-100952380D01*
X145154761Y-100952380D01*
X145154761Y-99952380D01*
X144821428Y-99952380D01*
X144726190Y-100000000D01*
X144678571Y-100047619D01*
X144630952Y-100142857D01*
X144630952Y-100238095D01*
X144678571Y-100333333D01*
X144726190Y-100380952D01*
X144821428Y-100428571D01*
X145154761Y-100428571D01*
X143964285Y-100476190D02*
X143964285Y-100952380D01*
X144297619Y-99952380D02*
X143964285Y-100476190D01*
X143630952Y-99952380D01*
X143297619Y-100571428D02*
X142535714Y-100571428D01*
X142107142Y-100904761D02*
X141964285Y-100952380D01*
X141726190Y-100952380D01*
X141630952Y-100904761D01*
X141583333Y-100857142D01*
X141535714Y-100761904D01*
X141535714Y-100666666D01*
X141583333Y-100571428D01*
X141630952Y-100523809D01*
X141726190Y-100476190D01*
X141916666Y-100428571D01*
X142011904Y-100380952D01*
X142059523Y-100333333D01*
X142107142Y-100238095D01*
X142107142Y-100142857D01*
X142059523Y-100047619D01*
X142011904Y-100000000D01*
X141916666Y-99952380D01*
X141678571Y-99952380D01*
X141535714Y-100000000D01*
X141154761Y-100666666D02*
X140678571Y-100666666D01*
X141250000Y-100952380D02*
X140916666Y-99952380D01*
X140583333Y-100952380D01*
X139535714Y-100047619D02*
X139488095Y-100000000D01*
X139392857Y-99952380D01*
X139154761Y-99952380D01*
X139059523Y-100000000D01*
X139011904Y-100047619D01*
X138964285Y-100142857D01*
X138964285Y-100238095D01*
X139011904Y-100380952D01*
X139583333Y-100952380D01*
X138964285Y-100952380D01*
X138345238Y-99952380D02*
X138250000Y-99952380D01*
X138154761Y-100000000D01*
X138107142Y-100047619D01*
X138059523Y-100142857D01*
X138011904Y-100333333D01*
X138011904Y-100571428D01*
X138059523Y-100761904D01*
X138107142Y-100857142D01*
X138154761Y-100904761D01*
X138250000Y-100952380D01*
X138345238Y-100952380D01*
X138440476Y-100904761D01*
X138488095Y-100857142D01*
X138535714Y-100761904D01*
X138583333Y-100571428D01*
X138583333Y-100333333D01*
X138535714Y-100142857D01*
X138488095Y-100047619D01*
X138440476Y-100000000D01*
X138345238Y-99952380D01*
X137630952Y-100047619D02*
X137583333Y-100000000D01*
X137488095Y-99952380D01*
X137250000Y-99952380D01*
X137154761Y-100000000D01*
X137107142Y-100047619D01*
X137059523Y-100142857D01*
X137059523Y-100238095D01*
X137107142Y-100380952D01*
X137678571Y-100952380D01*
X137059523Y-100952380D01*
X136107142Y-100952380D02*
X136678571Y-100952380D01*
X136392857Y-100952380D02*
X136392857Y-99952380D01*
X136488095Y-100095238D01*
X136583333Y-100190476D01*
X136678571Y-100238095D01*
D12*
X154307600Y-101287000D02*
X148847600Y-101287000D01*
X154307600Y-136967000D02*
X154307600Y-101287000D01*
X141387600Y-136967000D02*
X154307600Y-136967000D01*
X141387600Y-101287000D02*
X141387600Y-136967000D01*
X146847600Y-101287000D02*
X141387600Y-101287000D01*
X148847600Y-101287000D02*
G75*
G02*
X146847600Y-101287000I-1000000J0D01*
G01*
D11*
X143333333Y-101952380D02*
X143333333Y-102666666D01*
X143380952Y-102809523D01*
X143476190Y-102904761D01*
X143619047Y-102952380D01*
X143714285Y-102952380D01*
X142952380Y-101952380D02*
X142333333Y-101952380D01*
X142666666Y-102333333D01*
X142523809Y-102333333D01*
X142428571Y-102380952D01*
X142380952Y-102428571D01*
X142333333Y-102523809D01*
X142333333Y-102761904D01*
X142380952Y-102857142D01*
X142428571Y-102904761D01*
X142523809Y-102952380D01*
X142809523Y-102952380D01*
X142904761Y-102904761D01*
X142952380Y-102857142D01*
%LPC*%
D13*
X140227600Y-102617000D03*
D14*
X155467600Y-135637000D03*
X140227600Y-105157000D03*
X155467600Y-133097000D03*
X140227600Y-107697000D03*
X155467600Y-130557000D03*
X140227600Y-110237000D03*
X155467600Y-128017000D03*
X140227600Y-112777000D03*
X155467600Y-125477000D03*
X140227600Y-115317000D03*
X155467600Y-122937000D03*
X140227600Y-117857000D03*
X155467600Y-120397000D03*
X140227600Y-120397000D03*
X155467600Y-117857000D03*
X140227600Y-122937000D03*
X155467600Y-115317000D03*
X140227600Y-125477000D03*
X155467600Y-112777000D03*
X140227600Y-128017000D03*
X155467600Y-110237000D03*
X140227600Y-130557000D03*
X155467600Y-107697000D03*
X140227600Y-133097000D03*
X155467600Y-105157000D03*
X140227600Y-135637000D03*
X155467600Y-102617000D03*
D15*
X149000000Y-103000000D03*
D16*
X146460000Y-103000000D03*
D17*
X156620000Y-111500000D03*
X156620000Y-114040000D03*
X156620000Y-116580000D03*
X156620000Y-119120000D03*
X156620000Y-121660000D03*
X154080000Y-108960000D03*
X154080000Y-114040000D03*
X154080000Y-116580000D03*
X154080000Y-119120000D03*
X154080000Y-121660000D03*
X154080000Y-124200000D03*
X154080000Y-126740000D03*
X151540000Y-126740000D03*
X149000000Y-126740000D03*
X146460000Y-126740000D03*
X143920000Y-126740000D03*
X141380000Y-126740000D03*
X156620000Y-124200000D03*
X151540000Y-124200000D03*
X149000000Y-124200000D03*
X146460000Y-124200000D03*
X143920000Y-124200000D03*
X141380000Y-124200000D03*
X138840000Y-124200000D03*
X138840000Y-121660000D03*
X138840000Y-119120000D03*
X138840000Y-116580000D03*
X138840000Y-114040000D03*
X138840000Y-111500000D03*
X141380000Y-121660000D03*
X141380000Y-119120000D03*
X141380000Y-116580000D03*
X141380000Y-114040000D03*
X141380000Y-111500000D03*
X151540000Y-108960000D03*
X149000000Y-108960000D03*
X141380000Y-108960000D03*
X143920000Y-108960000D03*
X146460000Y-108960000D03*
X154080000Y-111500000D03*
X151540000Y-111500000D03*
X143920000Y-111500000D03*
X146460000Y-111500000D03*
D18*
X149000000Y-111500000D03*
D16*
X142710000Y-135540000D03*
D15*
X142710000Y-133000000D03*
X145250000Y-135540000D03*
X145250000Y-133000000D03*
X147790000Y-135540000D03*
X147790000Y-133000000D03*
X150330000Y-135540000D03*
X150330000Y-133000000D03*
X152870000Y-135540000D03*
X152870000Y-133000000D03*
D19*
X138575000Y-146575000D03*
D14*
X138575000Y-138955000D03*
D13*
X142675000Y-146525000D03*
D14*
X157915000Y-138905000D03*
X145215000Y-146525000D03*
X155375000Y-138905000D03*
X147755000Y-146525000D03*
X152835000Y-138905000D03*
X150295000Y-146525000D03*
X150295000Y-138905000D03*
X152835000Y-146525000D03*
X147755000Y-138905000D03*
X155375000Y-146525000D03*
X145215000Y-138905000D03*
X157915000Y-146525000D03*
X142675000Y-138905000D03*
D16*
X156800000Y-149425000D03*
D15*
X154260000Y-149425000D03*
X151720000Y-149425000D03*
D16*
X140125000Y-149425000D03*
D15*
X137585000Y-149425000D03*
X144835000Y-149425000D03*
D16*
X147375000Y-149425000D03*
M02*
