M48
; DRILL file {KiCad (5.1.9)-1} date 07/24/23 12:28:34
; FORMAT={-:-/ absolute / metric / decimal}
; #@! TF.CreationDate,2023-07-24T12:28:34+01:00
; #@! TF.GenerationSoftware,Kicad,Pcbnew,(5.1.9)-1
; #@! TF.FileFunction,Plated,1,2,PTH
FMAT,2
METRIC
T1C0.400
T2C0.800
T3C1.000
%
G90
G05
T1
X138.427Y-126.524
X138.428Y-109.478
X140.05Y-145.025
X142.65Y-119.74
X144.84Y-142.85
X146.35Y-144.625
X147.782Y-123.558
X148.925Y-140.05
X150.037Y-119.628
X150.075Y-128.925
X150.487Y-107.774
X151.003Y-118.617
X151.675Y-141.625
X151.975Y-130.925
X152.293Y-122.882
X152.725Y-129.675
X153.25Y-137.055
X157.475Y-140.925
X157.609Y-125.8
T2
X138.575Y-138.955
X138.575Y-146.575
X138.84Y-111.5
X138.84Y-114.04
X138.84Y-116.58
X138.84Y-119.12
X138.84Y-121.66
X138.84Y-124.2
X140.228Y-102.617
X140.228Y-105.157
X140.228Y-107.697
X140.228Y-110.237
X140.228Y-112.777
X140.228Y-115.317
X140.228Y-117.857
X140.228Y-120.397
X140.228Y-122.937
X140.228Y-125.477
X140.228Y-128.017
X140.228Y-130.557
X140.228Y-133.097
X140.228Y-135.637
X141.38Y-108.96
X141.38Y-111.5
X141.38Y-114.04
X141.38Y-116.58
X141.38Y-119.12
X141.38Y-121.66
X141.38Y-124.2
X141.38Y-126.74
X142.675Y-138.905
X142.675Y-146.525
X143.92Y-108.96
X143.92Y-111.5
X143.92Y-124.2
X143.92Y-126.74
X145.215Y-138.905
X145.215Y-146.525
X146.46Y-108.96
X146.46Y-111.5
X146.46Y-124.2
X146.46Y-126.74
X147.755Y-138.905
X147.755Y-146.525
X149.0Y-108.96
X149.0Y-111.5
X149.0Y-124.2
X149.0Y-126.74
X150.295Y-138.905
X150.295Y-146.525
X151.54Y-108.96
X151.54Y-111.5
X151.54Y-124.2
X151.54Y-126.74
X152.835Y-138.905
X152.835Y-146.525
X154.08Y-108.96
X154.08Y-111.5
X154.08Y-114.04
X154.08Y-116.58
X154.08Y-119.12
X154.08Y-121.66
X154.08Y-124.2
X154.08Y-126.74
X155.375Y-138.905
X155.375Y-146.525
X155.468Y-102.617
X155.468Y-105.157
X155.468Y-107.697
X155.468Y-110.237
X155.468Y-112.777
X155.468Y-115.317
X155.468Y-117.857
X155.468Y-120.397
X155.468Y-122.937
X155.468Y-125.477
X155.468Y-128.017
X155.468Y-130.557
X155.468Y-133.097
X155.468Y-135.637
X156.62Y-111.5
X156.62Y-114.04
X156.62Y-116.58
X156.62Y-119.12
X156.62Y-121.66
X156.62Y-124.2
X157.915Y-138.905
X157.915Y-146.525
T3
X137.585Y-149.425
X140.125Y-149.425
X142.71Y-133.0
X142.71Y-135.54
X144.835Y-149.425
X145.25Y-133.0
X145.25Y-135.54
X146.46Y-103.0
X147.375Y-149.425
X147.79Y-133.0
X147.79Y-135.54
X149.0Y-103.0
X150.33Y-133.0
X150.33Y-135.54
X151.72Y-149.425
X152.87Y-133.0
X152.87Y-135.54
X154.26Y-149.425
X156.8Y-149.425
T0
M30
