%FSLAX45Y45*%
G04 Gerber Fmt 4.5, Leading zero omitted, Abs format (unit mm)*
G04 Created by KiCad (PCBNEW (5.1.9)-1) date 2023-07-11 19:38:46*
%MOMM*%
%LPD*%
G01*
G04 APERTURE LIST*
%TA.AperFunction,Profile*%
%ADD10C,0.050000*%
%TD*%
%ADD11C,0.200000*%
%ADD12C,0.300000*%
G04 APERTURE END LIST*
D10*
X16000000Y-9900000D02*
X13550000Y-9900000D01*
X16000000Y-14850000D02*
X16000000Y-9900000D01*
X13550000Y-14850000D02*
X16000000Y-14850000D01*
X13550000Y-9900000D02*
X13550000Y-14850000D01*
D11*
X13822680Y-12632370D02*
X13862680Y-12672370D01*
X13862680Y-12632370D02*
X13822680Y-12672370D01*
X13822830Y-10927850D02*
X13862830Y-10967850D01*
X13862830Y-10927850D02*
X13822830Y-10967850D01*
X14245000Y-11954050D02*
X14285000Y-11994050D01*
X14285000Y-11954050D02*
X14245000Y-11994050D01*
X14758170Y-12335780D02*
X14798170Y-12375780D01*
X14798170Y-12335780D02*
X14758170Y-12375780D01*
X14935000Y-14440000D02*
X14975000Y-14480000D01*
X14975000Y-14440000D02*
X14935000Y-14480000D01*
X14983660Y-11942800D02*
X15023660Y-11982800D01*
X15023660Y-11942800D02*
X14983660Y-11982800D01*
X14987500Y-12872500D02*
X15027500Y-12912500D01*
X15027500Y-12872500D02*
X14987500Y-12912500D01*
X15028710Y-10757420D02*
X15068710Y-10797420D01*
X15068710Y-10757420D02*
X15028710Y-10797420D01*
X15080270Y-11841740D02*
X15120270Y-11881740D01*
X15120270Y-11841740D02*
X15080270Y-11881740D01*
X15177500Y-13072500D02*
X15217500Y-13112500D01*
X15217500Y-13072500D02*
X15177500Y-13112500D01*
X15209320Y-12268200D02*
X15249320Y-12308200D01*
X15249320Y-12268200D02*
X15209320Y-12308200D01*
X15252500Y-12947500D02*
X15292500Y-12987500D01*
X15292500Y-12947500D02*
X15252500Y-12987500D01*
X15305000Y-13685497D02*
X15345000Y-13725497D01*
X15345000Y-13685497D02*
X15305000Y-13725497D01*
X15669984Y-14052483D02*
X15709984Y-14092483D01*
X15709984Y-14052483D02*
X15669984Y-14092483D01*
X15740910Y-12560040D02*
X15780910Y-12600040D01*
X15780910Y-12560040D02*
X15740910Y-12600040D01*
X13897500Y-13895500D02*
G75*
G03*
X13897500Y-13895500I-40000J0D01*
G01*
X13897500Y-14657500D02*
G75*
G03*
X13897500Y-14657500I-40000J0D01*
G01*
X13924000Y-11150000D02*
G75*
G03*
X13924000Y-11150000I-40000J0D01*
G01*
X13924000Y-11404000D02*
G75*
G03*
X13924000Y-11404000I-40000J0D01*
G01*
X13924000Y-11658000D02*
G75*
G03*
X13924000Y-11658000I-40000J0D01*
G01*
X13924000Y-11912000D02*
G75*
G03*
X13924000Y-11912000I-40000J0D01*
G01*
X13924000Y-12166000D02*
G75*
G03*
X13924000Y-12166000I-40000J0D01*
G01*
X13924000Y-12420000D02*
G75*
G03*
X13924000Y-12420000I-40000J0D01*
G01*
X14062760Y-10261700D02*
G75*
G03*
X14062760Y-10261700I-40000J0D01*
G01*
X14062760Y-10515700D02*
G75*
G03*
X14062760Y-10515700I-40000J0D01*
G01*
X14062760Y-10769700D02*
G75*
G03*
X14062760Y-10769700I-40000J0D01*
G01*
X14062760Y-11023700D02*
G75*
G03*
X14062760Y-11023700I-40000J0D01*
G01*
X14062760Y-11277700D02*
G75*
G03*
X14062760Y-11277700I-40000J0D01*
G01*
X14062760Y-11531700D02*
G75*
G03*
X14062760Y-11531700I-40000J0D01*
G01*
X14062760Y-11785700D02*
G75*
G03*
X14062760Y-11785700I-40000J0D01*
G01*
X14062760Y-12039700D02*
G75*
G03*
X14062760Y-12039700I-40000J0D01*
G01*
X14062760Y-12293700D02*
G75*
G03*
X14062760Y-12293700I-40000J0D01*
G01*
X14062760Y-12547700D02*
G75*
G03*
X14062760Y-12547700I-40000J0D01*
G01*
X14062760Y-12801700D02*
G75*
G03*
X14062760Y-12801700I-40000J0D01*
G01*
X14062760Y-13055700D02*
G75*
G03*
X14062760Y-13055700I-40000J0D01*
G01*
X14062760Y-13309700D02*
G75*
G03*
X14062760Y-13309700I-40000J0D01*
G01*
X14062760Y-13563700D02*
G75*
G03*
X14062760Y-13563700I-40000J0D01*
G01*
X14178000Y-10896000D02*
G75*
G03*
X14178000Y-10896000I-40000J0D01*
G01*
X14178000Y-11150000D02*
G75*
G03*
X14178000Y-11150000I-40000J0D01*
G01*
X14178000Y-11404000D02*
G75*
G03*
X14178000Y-11404000I-40000J0D01*
G01*
X14178000Y-11658000D02*
G75*
G03*
X14178000Y-11658000I-40000J0D01*
G01*
X14178000Y-11912000D02*
G75*
G03*
X14178000Y-11912000I-40000J0D01*
G01*
X14178000Y-12166000D02*
G75*
G03*
X14178000Y-12166000I-40000J0D01*
G01*
X14178000Y-12420000D02*
G75*
G03*
X14178000Y-12420000I-40000J0D01*
G01*
X14178000Y-12674000D02*
G75*
G03*
X14178000Y-12674000I-40000J0D01*
G01*
X14307500Y-13890500D02*
G75*
G03*
X14307500Y-13890500I-40000J0D01*
G01*
X14307500Y-14652500D02*
G75*
G03*
X14307500Y-14652500I-40000J0D01*
G01*
X14432000Y-10896000D02*
G75*
G03*
X14432000Y-10896000I-40000J0D01*
G01*
X14432000Y-11150000D02*
G75*
G03*
X14432000Y-11150000I-40000J0D01*
G01*
X14432000Y-12420000D02*
G75*
G03*
X14432000Y-12420000I-40000J0D01*
G01*
X14432000Y-12674000D02*
G75*
G03*
X14432000Y-12674000I-40000J0D01*
G01*
X14561500Y-13890500D02*
G75*
G03*
X14561500Y-13890500I-40000J0D01*
G01*
X14561500Y-14652500D02*
G75*
G03*
X14561500Y-14652500I-40000J0D01*
G01*
X14686000Y-10896000D02*
G75*
G03*
X14686000Y-10896000I-40000J0D01*
G01*
X14686000Y-11150000D02*
G75*
G03*
X14686000Y-11150000I-40000J0D01*
G01*
X14686000Y-12420000D02*
G75*
G03*
X14686000Y-12420000I-40000J0D01*
G01*
X14686000Y-12674000D02*
G75*
G03*
X14686000Y-12674000I-40000J0D01*
G01*
X14815500Y-13890500D02*
G75*
G03*
X14815500Y-13890500I-40000J0D01*
G01*
X14815500Y-14652500D02*
G75*
G03*
X14815500Y-14652500I-40000J0D01*
G01*
X14940000Y-10896000D02*
G75*
G03*
X14940000Y-10896000I-40000J0D01*
G01*
X14940000Y-11150000D02*
G75*
G03*
X14940000Y-11150000I-40000J0D01*
G01*
X14940000Y-12420000D02*
G75*
G03*
X14940000Y-12420000I-40000J0D01*
G01*
X14940000Y-12674000D02*
G75*
G03*
X14940000Y-12674000I-40000J0D01*
G01*
X15069500Y-13890500D02*
G75*
G03*
X15069500Y-13890500I-40000J0D01*
G01*
X15069500Y-14652500D02*
G75*
G03*
X15069500Y-14652500I-40000J0D01*
G01*
X15194000Y-10896000D02*
G75*
G03*
X15194000Y-10896000I-40000J0D01*
G01*
X15194000Y-11150000D02*
G75*
G03*
X15194000Y-11150000I-40000J0D01*
G01*
X15194000Y-12420000D02*
G75*
G03*
X15194000Y-12420000I-40000J0D01*
G01*
X15194000Y-12674000D02*
G75*
G03*
X15194000Y-12674000I-40000J0D01*
G01*
X15323500Y-13890500D02*
G75*
G03*
X15323500Y-13890500I-40000J0D01*
G01*
X15323500Y-14652500D02*
G75*
G03*
X15323500Y-14652500I-40000J0D01*
G01*
X15448000Y-10896000D02*
G75*
G03*
X15448000Y-10896000I-40000J0D01*
G01*
X15448000Y-11150000D02*
G75*
G03*
X15448000Y-11150000I-40000J0D01*
G01*
X15448000Y-11404000D02*
G75*
G03*
X15448000Y-11404000I-40000J0D01*
G01*
X15448000Y-11658000D02*
G75*
G03*
X15448000Y-11658000I-40000J0D01*
G01*
X15448000Y-11912000D02*
G75*
G03*
X15448000Y-11912000I-40000J0D01*
G01*
X15448000Y-12166000D02*
G75*
G03*
X15448000Y-12166000I-40000J0D01*
G01*
X15448000Y-12420000D02*
G75*
G03*
X15448000Y-12420000I-40000J0D01*
G01*
X15448000Y-12674000D02*
G75*
G03*
X15448000Y-12674000I-40000J0D01*
G01*
X15577500Y-13890500D02*
G75*
G03*
X15577500Y-13890500I-40000J0D01*
G01*
X15577500Y-14652500D02*
G75*
G03*
X15577500Y-14652500I-40000J0D01*
G01*
X15586760Y-10261700D02*
G75*
G03*
X15586760Y-10261700I-40000J0D01*
G01*
X15586760Y-10515700D02*
G75*
G03*
X15586760Y-10515700I-40000J0D01*
G01*
X15586760Y-10769700D02*
G75*
G03*
X15586760Y-10769700I-40000J0D01*
G01*
X15586760Y-11023700D02*
G75*
G03*
X15586760Y-11023700I-40000J0D01*
G01*
X15586760Y-11277700D02*
G75*
G03*
X15586760Y-11277700I-40000J0D01*
G01*
X15586760Y-11531700D02*
G75*
G03*
X15586760Y-11531700I-40000J0D01*
G01*
X15586760Y-11785700D02*
G75*
G03*
X15586760Y-11785700I-40000J0D01*
G01*
X15586760Y-12039700D02*
G75*
G03*
X15586760Y-12039700I-40000J0D01*
G01*
X15586760Y-12293700D02*
G75*
G03*
X15586760Y-12293700I-40000J0D01*
G01*
X15586760Y-12547700D02*
G75*
G03*
X15586760Y-12547700I-40000J0D01*
G01*
X15586760Y-12801700D02*
G75*
G03*
X15586760Y-12801700I-40000J0D01*
G01*
X15586760Y-13055700D02*
G75*
G03*
X15586760Y-13055700I-40000J0D01*
G01*
X15586760Y-13309700D02*
G75*
G03*
X15586760Y-13309700I-40000J0D01*
G01*
X15586760Y-13563700D02*
G75*
G03*
X15586760Y-13563700I-40000J0D01*
G01*
X15702000Y-11150000D02*
G75*
G03*
X15702000Y-11150000I-40000J0D01*
G01*
X15702000Y-11404000D02*
G75*
G03*
X15702000Y-11404000I-40000J0D01*
G01*
X15702000Y-11658000D02*
G75*
G03*
X15702000Y-11658000I-40000J0D01*
G01*
X15702000Y-11912000D02*
G75*
G03*
X15702000Y-11912000I-40000J0D01*
G01*
X15702000Y-12166000D02*
G75*
G03*
X15702000Y-12166000I-40000J0D01*
G01*
X15702000Y-12420000D02*
G75*
G03*
X15702000Y-12420000I-40000J0D01*
G01*
X15831500Y-13890500D02*
G75*
G03*
X15831500Y-13890500I-40000J0D01*
G01*
X15831500Y-14652500D02*
G75*
G03*
X15831500Y-14652500I-40000J0D01*
G01*
X14271000Y-13250000D02*
X14271000Y-13350000D01*
X14221000Y-13300000D02*
X14321000Y-13300000D01*
X14271000Y-13504000D02*
X14271000Y-13604000D01*
X14221000Y-13554000D02*
X14321000Y-13554000D01*
X14525000Y-13250000D02*
X14525000Y-13350000D01*
X14475000Y-13300000D02*
X14575000Y-13300000D01*
X14525000Y-13504000D02*
X14525000Y-13604000D01*
X14475000Y-13554000D02*
X14575000Y-13554000D01*
X14646000Y-10250000D02*
X14646000Y-10350000D01*
X14596000Y-10300000D02*
X14696000Y-10300000D01*
X14779000Y-13250000D02*
X14779000Y-13350000D01*
X14729000Y-13300000D02*
X14829000Y-13300000D01*
X14779000Y-13504000D02*
X14779000Y-13604000D01*
X14729000Y-13554000D02*
X14829000Y-13554000D01*
X14900000Y-10250000D02*
X14900000Y-10350000D01*
X14850000Y-10300000D02*
X14950000Y-10300000D01*
X15033000Y-13250000D02*
X15033000Y-13350000D01*
X14983000Y-13300000D02*
X15083000Y-13300000D01*
X15033000Y-13504000D02*
X15033000Y-13604000D01*
X14983000Y-13554000D02*
X15083000Y-13554000D01*
X15287000Y-13250000D02*
X15287000Y-13350000D01*
X15237000Y-13300000D02*
X15337000Y-13300000D01*
X15287000Y-13504000D02*
X15287000Y-13604000D01*
X15237000Y-13554000D02*
X15337000Y-13554000D01*
D12*
X13833928Y-15318214D02*
X13833928Y-15018214D01*
X13905357Y-15018214D01*
X13948214Y-15032500D01*
X13976786Y-15061071D01*
X13991071Y-15089643D01*
X14005357Y-15146786D01*
X14005357Y-15189643D01*
X13991071Y-15246786D01*
X13976786Y-15275357D01*
X13948214Y-15303929D01*
X13905357Y-15318214D01*
X13833928Y-15318214D01*
X14133928Y-15318214D02*
X14133928Y-15118214D01*
X14133928Y-15175357D02*
X14148214Y-15146786D01*
X14162500Y-15132500D01*
X14191071Y-15118214D01*
X14219643Y-15118214D01*
X14319643Y-15318214D02*
X14319643Y-15118214D01*
X14319643Y-15018214D02*
X14305357Y-15032500D01*
X14319643Y-15046786D01*
X14333928Y-15032500D01*
X14319643Y-15018214D01*
X14319643Y-15046786D01*
X14505357Y-15318214D02*
X14476786Y-15303929D01*
X14462500Y-15275357D01*
X14462500Y-15018214D01*
X14662500Y-15318214D02*
X14633928Y-15303929D01*
X14619643Y-15275357D01*
X14619643Y-15018214D01*
X15005357Y-15318214D02*
X15005357Y-15018214D01*
X15105357Y-15232500D01*
X15205357Y-15018214D01*
X15205357Y-15318214D01*
X15476786Y-15318214D02*
X15476786Y-15161071D01*
X15462500Y-15132500D01*
X15433928Y-15118214D01*
X15376786Y-15118214D01*
X15348214Y-15132500D01*
X15476786Y-15303929D02*
X15448214Y-15318214D01*
X15376786Y-15318214D01*
X15348214Y-15303929D01*
X15333928Y-15275357D01*
X15333928Y-15246786D01*
X15348214Y-15218214D01*
X15376786Y-15203929D01*
X15448214Y-15203929D01*
X15476786Y-15189643D01*
X15619643Y-15118214D02*
X15619643Y-15418214D01*
X15619643Y-15132500D02*
X15648214Y-15118214D01*
X15705357Y-15118214D01*
X15733928Y-15132500D01*
X15748214Y-15146786D01*
X15762500Y-15175357D01*
X15762500Y-15261071D01*
X15748214Y-15289643D01*
X15733928Y-15303929D01*
X15705357Y-15318214D01*
X15648214Y-15318214D01*
X15619643Y-15303929D01*
X15891071Y-15289643D02*
X15905357Y-15303929D01*
X15891071Y-15318214D01*
X15876786Y-15303929D01*
X15891071Y-15289643D01*
X15891071Y-15318214D01*
X15891071Y-15132500D02*
X15905357Y-15146786D01*
X15891071Y-15161071D01*
X15876786Y-15146786D01*
X15891071Y-15132500D01*
X15891071Y-15161071D01*
X13507500Y-15792500D02*
X13547500Y-15832500D01*
X13547500Y-15792500D02*
X13507500Y-15832500D01*
X13891071Y-15648214D02*
X13919643Y-15648214D01*
X13948214Y-15662500D01*
X13962500Y-15676786D01*
X13976786Y-15705357D01*
X13991071Y-15762500D01*
X13991071Y-15833929D01*
X13976786Y-15891071D01*
X13962500Y-15919643D01*
X13948214Y-15933929D01*
X13919643Y-15948214D01*
X13891071Y-15948214D01*
X13862500Y-15933929D01*
X13848214Y-15919643D01*
X13833928Y-15891071D01*
X13819643Y-15833929D01*
X13819643Y-15762500D01*
X13833928Y-15705357D01*
X13848214Y-15676786D01*
X13862500Y-15662500D01*
X13891071Y-15648214D01*
X14119643Y-15919643D02*
X14133928Y-15933929D01*
X14119643Y-15948214D01*
X14105357Y-15933929D01*
X14119643Y-15919643D01*
X14119643Y-15948214D01*
X14391071Y-15748214D02*
X14391071Y-15948214D01*
X14319643Y-15633929D02*
X14248214Y-15848214D01*
X14433928Y-15848214D01*
X14605357Y-15648214D02*
X14633928Y-15648214D01*
X14662500Y-15662500D01*
X14676786Y-15676786D01*
X14691071Y-15705357D01*
X14705357Y-15762500D01*
X14705357Y-15833929D01*
X14691071Y-15891071D01*
X14676786Y-15919643D01*
X14662500Y-15933929D01*
X14633928Y-15948214D01*
X14605357Y-15948214D01*
X14576786Y-15933929D01*
X14562500Y-15919643D01*
X14548214Y-15891071D01*
X14533928Y-15833929D01*
X14533928Y-15762500D01*
X14548214Y-15705357D01*
X14562500Y-15676786D01*
X14576786Y-15662500D01*
X14605357Y-15648214D01*
X14833928Y-15948214D02*
X14833928Y-15748214D01*
X14833928Y-15776786D02*
X14848214Y-15762500D01*
X14876786Y-15748214D01*
X14919643Y-15748214D01*
X14948214Y-15762500D01*
X14962500Y-15791071D01*
X14962500Y-15948214D01*
X14962500Y-15791071D02*
X14976786Y-15762500D01*
X15005357Y-15748214D01*
X15048214Y-15748214D01*
X15076786Y-15762500D01*
X15091071Y-15791071D01*
X15091071Y-15948214D01*
X15233928Y-15948214D02*
X15233928Y-15748214D01*
X15233928Y-15776786D02*
X15248214Y-15762500D01*
X15276786Y-15748214D01*
X15319643Y-15748214D01*
X15348214Y-15762500D01*
X15362500Y-15791071D01*
X15362500Y-15948214D01*
X15362500Y-15791071D02*
X15376786Y-15762500D01*
X15405357Y-15748214D01*
X15448214Y-15748214D01*
X15476786Y-15762500D01*
X15491071Y-15791071D01*
X15491071Y-15948214D01*
X16076786Y-15633929D02*
X15819643Y-16019643D01*
X16462500Y-15648214D02*
X16491071Y-15648214D01*
X16519643Y-15662500D01*
X16533928Y-15676786D01*
X16548214Y-15705357D01*
X16562500Y-15762500D01*
X16562500Y-15833929D01*
X16548214Y-15891071D01*
X16533928Y-15919643D01*
X16519643Y-15933929D01*
X16491071Y-15948214D01*
X16462500Y-15948214D01*
X16433928Y-15933929D01*
X16419643Y-15919643D01*
X16405357Y-15891071D01*
X16391071Y-15833929D01*
X16391071Y-15762500D01*
X16405357Y-15705357D01*
X16419643Y-15676786D01*
X16433928Y-15662500D01*
X16462500Y-15648214D01*
X16691071Y-15919643D02*
X16705357Y-15933929D01*
X16691071Y-15948214D01*
X16676786Y-15933929D01*
X16691071Y-15919643D01*
X16691071Y-15948214D01*
X16891071Y-15648214D02*
X16919643Y-15648214D01*
X16948214Y-15662500D01*
X16962500Y-15676786D01*
X16976786Y-15705357D01*
X16991071Y-15762500D01*
X16991071Y-15833929D01*
X16976786Y-15891071D01*
X16962500Y-15919643D01*
X16948214Y-15933929D01*
X16919643Y-15948214D01*
X16891071Y-15948214D01*
X16862500Y-15933929D01*
X16848214Y-15919643D01*
X16833928Y-15891071D01*
X16819643Y-15833929D01*
X16819643Y-15762500D01*
X16833928Y-15705357D01*
X16848214Y-15676786D01*
X16862500Y-15662500D01*
X16891071Y-15648214D01*
X17276786Y-15948214D02*
X17105357Y-15948214D01*
X17191071Y-15948214D02*
X17191071Y-15648214D01*
X17162500Y-15691071D01*
X17133928Y-15719643D01*
X17105357Y-15733929D01*
X17533928Y-15648214D02*
X17476786Y-15648214D01*
X17448214Y-15662500D01*
X17433928Y-15676786D01*
X17405357Y-15719643D01*
X17391071Y-15776786D01*
X17391071Y-15891071D01*
X17405357Y-15919643D01*
X17419643Y-15933929D01*
X17448214Y-15948214D01*
X17505357Y-15948214D01*
X17533928Y-15933929D01*
X17548214Y-15919643D01*
X17562500Y-15891071D01*
X17562500Y-15819643D01*
X17548214Y-15791071D01*
X17533928Y-15776786D01*
X17505357Y-15762500D01*
X17448214Y-15762500D01*
X17419643Y-15776786D01*
X17405357Y-15791071D01*
X17391071Y-15819643D01*
X17676786Y-15648214D02*
X17676786Y-15705357D01*
X17791071Y-15648214D02*
X17791071Y-15705357D01*
X18233928Y-16062500D02*
X18219643Y-16048214D01*
X18191071Y-16005357D01*
X18176786Y-15976786D01*
X18162500Y-15933929D01*
X18148214Y-15862500D01*
X18148214Y-15805357D01*
X18162500Y-15733929D01*
X18176786Y-15691071D01*
X18191071Y-15662500D01*
X18219643Y-15619643D01*
X18233928Y-15605357D01*
X18505357Y-15948214D02*
X18333928Y-15948214D01*
X18419643Y-15948214D02*
X18419643Y-15648214D01*
X18391071Y-15691071D01*
X18362500Y-15719643D01*
X18333928Y-15733929D01*
X18776786Y-15648214D02*
X18633928Y-15648214D01*
X18619643Y-15791071D01*
X18633928Y-15776786D01*
X18662500Y-15762500D01*
X18733928Y-15762500D01*
X18762500Y-15776786D01*
X18776786Y-15791071D01*
X18791071Y-15819643D01*
X18791071Y-15891071D01*
X18776786Y-15919643D01*
X18762500Y-15933929D01*
X18733928Y-15948214D01*
X18662500Y-15948214D01*
X18633928Y-15933929D01*
X18619643Y-15919643D01*
X19148214Y-15948214D02*
X19148214Y-15648214D01*
X19276786Y-15948214D02*
X19276786Y-15791071D01*
X19262500Y-15762500D01*
X19233928Y-15748214D01*
X19191071Y-15748214D01*
X19162500Y-15762500D01*
X19148214Y-15776786D01*
X19462500Y-15948214D02*
X19433928Y-15933929D01*
X19419643Y-15919643D01*
X19405357Y-15891071D01*
X19405357Y-15805357D01*
X19419643Y-15776786D01*
X19433928Y-15762500D01*
X19462500Y-15748214D01*
X19505357Y-15748214D01*
X19533928Y-15762500D01*
X19548214Y-15776786D01*
X19562500Y-15805357D01*
X19562500Y-15891071D01*
X19548214Y-15919643D01*
X19533928Y-15933929D01*
X19505357Y-15948214D01*
X19462500Y-15948214D01*
X19733928Y-15948214D02*
X19705357Y-15933929D01*
X19691071Y-15905357D01*
X19691071Y-15648214D01*
X19962500Y-15933929D02*
X19933928Y-15948214D01*
X19876786Y-15948214D01*
X19848214Y-15933929D01*
X19833928Y-15905357D01*
X19833928Y-15791071D01*
X19848214Y-15762500D01*
X19876786Y-15748214D01*
X19933928Y-15748214D01*
X19962500Y-15762500D01*
X19976786Y-15791071D01*
X19976786Y-15819643D01*
X19833928Y-15848214D01*
X20091071Y-15933929D02*
X20119643Y-15948214D01*
X20176786Y-15948214D01*
X20205357Y-15933929D01*
X20219643Y-15905357D01*
X20219643Y-15891071D01*
X20205357Y-15862500D01*
X20176786Y-15848214D01*
X20133928Y-15848214D01*
X20105357Y-15833929D01*
X20091071Y-15805357D01*
X20091071Y-15791071D01*
X20105357Y-15762500D01*
X20133928Y-15748214D01*
X20176786Y-15748214D01*
X20205357Y-15762500D01*
X20319643Y-16062500D02*
X20333928Y-16048214D01*
X20362500Y-16005357D01*
X20376786Y-15976786D01*
X20391071Y-15933929D01*
X20405357Y-15862500D01*
X20405357Y-15805357D01*
X20391071Y-15733929D01*
X20376786Y-15691071D01*
X20362500Y-15662500D01*
X20333928Y-15619643D01*
X20319643Y-15605357D01*
X13547500Y-16208500D02*
G75*
G03*
X13547500Y-16208500I-40000J0D01*
G01*
X13891071Y-16044214D02*
X13919643Y-16044214D01*
X13948214Y-16058500D01*
X13962500Y-16072786D01*
X13976786Y-16101357D01*
X13991071Y-16158500D01*
X13991071Y-16229929D01*
X13976786Y-16287071D01*
X13962500Y-16315643D01*
X13948214Y-16329929D01*
X13919643Y-16344214D01*
X13891071Y-16344214D01*
X13862500Y-16329929D01*
X13848214Y-16315643D01*
X13833928Y-16287071D01*
X13819643Y-16229929D01*
X13819643Y-16158500D01*
X13833928Y-16101357D01*
X13848214Y-16072786D01*
X13862500Y-16058500D01*
X13891071Y-16044214D01*
X14119643Y-16315643D02*
X14133928Y-16329929D01*
X14119643Y-16344214D01*
X14105357Y-16329929D01*
X14119643Y-16315643D01*
X14119643Y-16344214D01*
X14305357Y-16172786D02*
X14276786Y-16158500D01*
X14262500Y-16144214D01*
X14248214Y-16115643D01*
X14248214Y-16101357D01*
X14262500Y-16072786D01*
X14276786Y-16058500D01*
X14305357Y-16044214D01*
X14362500Y-16044214D01*
X14391071Y-16058500D01*
X14405357Y-16072786D01*
X14419643Y-16101357D01*
X14419643Y-16115643D01*
X14405357Y-16144214D01*
X14391071Y-16158500D01*
X14362500Y-16172786D01*
X14305357Y-16172786D01*
X14276786Y-16187071D01*
X14262500Y-16201357D01*
X14248214Y-16229929D01*
X14248214Y-16287071D01*
X14262500Y-16315643D01*
X14276786Y-16329929D01*
X14305357Y-16344214D01*
X14362500Y-16344214D01*
X14391071Y-16329929D01*
X14405357Y-16315643D01*
X14419643Y-16287071D01*
X14419643Y-16229929D01*
X14405357Y-16201357D01*
X14391071Y-16187071D01*
X14362500Y-16172786D01*
X14605357Y-16044214D02*
X14633928Y-16044214D01*
X14662500Y-16058500D01*
X14676786Y-16072786D01*
X14691071Y-16101357D01*
X14705357Y-16158500D01*
X14705357Y-16229929D01*
X14691071Y-16287071D01*
X14676786Y-16315643D01*
X14662500Y-16329929D01*
X14633928Y-16344214D01*
X14605357Y-16344214D01*
X14576786Y-16329929D01*
X14562500Y-16315643D01*
X14548214Y-16287071D01*
X14533928Y-16229929D01*
X14533928Y-16158500D01*
X14548214Y-16101357D01*
X14562500Y-16072786D01*
X14576786Y-16058500D01*
X14605357Y-16044214D01*
X14833928Y-16344214D02*
X14833928Y-16144214D01*
X14833928Y-16172786D02*
X14848214Y-16158500D01*
X14876786Y-16144214D01*
X14919643Y-16144214D01*
X14948214Y-16158500D01*
X14962500Y-16187071D01*
X14962500Y-16344214D01*
X14962500Y-16187071D02*
X14976786Y-16158500D01*
X15005357Y-16144214D01*
X15048214Y-16144214D01*
X15076786Y-16158500D01*
X15091071Y-16187071D01*
X15091071Y-16344214D01*
X15233928Y-16344214D02*
X15233928Y-16144214D01*
X15233928Y-16172786D02*
X15248214Y-16158500D01*
X15276786Y-16144214D01*
X15319643Y-16144214D01*
X15348214Y-16158500D01*
X15362500Y-16187071D01*
X15362500Y-16344214D01*
X15362500Y-16187071D02*
X15376786Y-16158500D01*
X15405357Y-16144214D01*
X15448214Y-16144214D01*
X15476786Y-16158500D01*
X15491071Y-16187071D01*
X15491071Y-16344214D01*
X16076786Y-16029929D02*
X15819643Y-16415643D01*
X16462500Y-16044214D02*
X16491071Y-16044214D01*
X16519643Y-16058500D01*
X16533928Y-16072786D01*
X16548214Y-16101357D01*
X16562500Y-16158500D01*
X16562500Y-16229929D01*
X16548214Y-16287071D01*
X16533928Y-16315643D01*
X16519643Y-16329929D01*
X16491071Y-16344214D01*
X16462500Y-16344214D01*
X16433928Y-16329929D01*
X16419643Y-16315643D01*
X16405357Y-16287071D01*
X16391071Y-16229929D01*
X16391071Y-16158500D01*
X16405357Y-16101357D01*
X16419643Y-16072786D01*
X16433928Y-16058500D01*
X16462500Y-16044214D01*
X16691071Y-16315643D02*
X16705357Y-16329929D01*
X16691071Y-16344214D01*
X16676786Y-16329929D01*
X16691071Y-16315643D01*
X16691071Y-16344214D01*
X16891071Y-16044214D02*
X16919643Y-16044214D01*
X16948214Y-16058500D01*
X16962500Y-16072786D01*
X16976786Y-16101357D01*
X16991071Y-16158500D01*
X16991071Y-16229929D01*
X16976786Y-16287071D01*
X16962500Y-16315643D01*
X16948214Y-16329929D01*
X16919643Y-16344214D01*
X16891071Y-16344214D01*
X16862500Y-16329929D01*
X16848214Y-16315643D01*
X16833928Y-16287071D01*
X16819643Y-16229929D01*
X16819643Y-16158500D01*
X16833928Y-16101357D01*
X16848214Y-16072786D01*
X16862500Y-16058500D01*
X16891071Y-16044214D01*
X17091071Y-16044214D02*
X17276786Y-16044214D01*
X17176786Y-16158500D01*
X17219643Y-16158500D01*
X17248214Y-16172786D01*
X17262500Y-16187071D01*
X17276786Y-16215643D01*
X17276786Y-16287071D01*
X17262500Y-16315643D01*
X17248214Y-16329929D01*
X17219643Y-16344214D01*
X17133928Y-16344214D01*
X17105357Y-16329929D01*
X17091071Y-16315643D01*
X17562500Y-16344214D02*
X17391071Y-16344214D01*
X17476786Y-16344214D02*
X17476786Y-16044214D01*
X17448214Y-16087071D01*
X17419643Y-16115643D01*
X17391071Y-16129929D01*
X17676786Y-16044214D02*
X17676786Y-16101357D01*
X17791071Y-16044214D02*
X17791071Y-16101357D01*
X18233928Y-16458500D02*
X18219643Y-16444214D01*
X18191071Y-16401357D01*
X18176786Y-16372786D01*
X18162500Y-16329929D01*
X18148214Y-16258500D01*
X18148214Y-16201357D01*
X18162500Y-16129929D01*
X18176786Y-16087071D01*
X18191071Y-16058500D01*
X18219643Y-16015643D01*
X18233928Y-16001357D01*
X18391071Y-16172786D02*
X18362500Y-16158500D01*
X18348214Y-16144214D01*
X18333928Y-16115643D01*
X18333928Y-16101357D01*
X18348214Y-16072786D01*
X18362500Y-16058500D01*
X18391071Y-16044214D01*
X18448214Y-16044214D01*
X18476786Y-16058500D01*
X18491071Y-16072786D01*
X18505357Y-16101357D01*
X18505357Y-16115643D01*
X18491071Y-16144214D01*
X18476786Y-16158500D01*
X18448214Y-16172786D01*
X18391071Y-16172786D01*
X18362500Y-16187071D01*
X18348214Y-16201357D01*
X18333928Y-16229929D01*
X18333928Y-16287071D01*
X18348214Y-16315643D01*
X18362500Y-16329929D01*
X18391071Y-16344214D01*
X18448214Y-16344214D01*
X18476786Y-16329929D01*
X18491071Y-16315643D01*
X18505357Y-16287071D01*
X18505357Y-16229929D01*
X18491071Y-16201357D01*
X18476786Y-16187071D01*
X18448214Y-16172786D01*
X18676786Y-16172786D02*
X18648214Y-16158500D01*
X18633928Y-16144214D01*
X18619643Y-16115643D01*
X18619643Y-16101357D01*
X18633928Y-16072786D01*
X18648214Y-16058500D01*
X18676786Y-16044214D01*
X18733928Y-16044214D01*
X18762500Y-16058500D01*
X18776786Y-16072786D01*
X18791071Y-16101357D01*
X18791071Y-16115643D01*
X18776786Y-16144214D01*
X18762500Y-16158500D01*
X18733928Y-16172786D01*
X18676786Y-16172786D01*
X18648214Y-16187071D01*
X18633928Y-16201357D01*
X18619643Y-16229929D01*
X18619643Y-16287071D01*
X18633928Y-16315643D01*
X18648214Y-16329929D01*
X18676786Y-16344214D01*
X18733928Y-16344214D01*
X18762500Y-16329929D01*
X18776786Y-16315643D01*
X18791071Y-16287071D01*
X18791071Y-16229929D01*
X18776786Y-16201357D01*
X18762500Y-16187071D01*
X18733928Y-16172786D01*
X19148214Y-16344214D02*
X19148214Y-16044214D01*
X19276786Y-16344214D02*
X19276786Y-16187071D01*
X19262500Y-16158500D01*
X19233928Y-16144214D01*
X19191071Y-16144214D01*
X19162500Y-16158500D01*
X19148214Y-16172786D01*
X19462500Y-16344214D02*
X19433928Y-16329929D01*
X19419643Y-16315643D01*
X19405357Y-16287071D01*
X19405357Y-16201357D01*
X19419643Y-16172786D01*
X19433928Y-16158500D01*
X19462500Y-16144214D01*
X19505357Y-16144214D01*
X19533928Y-16158500D01*
X19548214Y-16172786D01*
X19562500Y-16201357D01*
X19562500Y-16287071D01*
X19548214Y-16315643D01*
X19533928Y-16329929D01*
X19505357Y-16344214D01*
X19462500Y-16344214D01*
X19733928Y-16344214D02*
X19705357Y-16329929D01*
X19691071Y-16301357D01*
X19691071Y-16044214D01*
X19962500Y-16329929D02*
X19933928Y-16344214D01*
X19876786Y-16344214D01*
X19848214Y-16329929D01*
X19833928Y-16301357D01*
X19833928Y-16187071D01*
X19848214Y-16158500D01*
X19876786Y-16144214D01*
X19933928Y-16144214D01*
X19962500Y-16158500D01*
X19976786Y-16187071D01*
X19976786Y-16215643D01*
X19833928Y-16244214D01*
X20091071Y-16329929D02*
X20119643Y-16344214D01*
X20176786Y-16344214D01*
X20205357Y-16329929D01*
X20219643Y-16301357D01*
X20219643Y-16287071D01*
X20205357Y-16258500D01*
X20176786Y-16244214D01*
X20133928Y-16244214D01*
X20105357Y-16229929D01*
X20091071Y-16201357D01*
X20091071Y-16187071D01*
X20105357Y-16158500D01*
X20133928Y-16144214D01*
X20176786Y-16144214D01*
X20205357Y-16158500D01*
X20319643Y-16458500D02*
X20333928Y-16444214D01*
X20362500Y-16401357D01*
X20376786Y-16372786D01*
X20391071Y-16329929D01*
X20405357Y-16258500D01*
X20405357Y-16201357D01*
X20391071Y-16129929D01*
X20376786Y-16087071D01*
X20362500Y-16058500D01*
X20333928Y-16015643D01*
X20319643Y-16001357D01*
X13497500Y-16554500D02*
X13497500Y-16654500D01*
X13447500Y-16604500D02*
X13547500Y-16604500D01*
X13991071Y-16740214D02*
X13819643Y-16740214D01*
X13905357Y-16740214D02*
X13905357Y-16440214D01*
X13876786Y-16483071D01*
X13848214Y-16511643D01*
X13819643Y-16525929D01*
X14119643Y-16711643D02*
X14133928Y-16725929D01*
X14119643Y-16740214D01*
X14105357Y-16725929D01*
X14119643Y-16711643D01*
X14119643Y-16740214D01*
X14319643Y-16440214D02*
X14348214Y-16440214D01*
X14376786Y-16454500D01*
X14391071Y-16468786D01*
X14405357Y-16497357D01*
X14419643Y-16554500D01*
X14419643Y-16625929D01*
X14405357Y-16683071D01*
X14391071Y-16711643D01*
X14376786Y-16725929D01*
X14348214Y-16740214D01*
X14319643Y-16740214D01*
X14291071Y-16725929D01*
X14276786Y-16711643D01*
X14262500Y-16683071D01*
X14248214Y-16625929D01*
X14248214Y-16554500D01*
X14262500Y-16497357D01*
X14276786Y-16468786D01*
X14291071Y-16454500D01*
X14319643Y-16440214D01*
X14605357Y-16440214D02*
X14633928Y-16440214D01*
X14662500Y-16454500D01*
X14676786Y-16468786D01*
X14691071Y-16497357D01*
X14705357Y-16554500D01*
X14705357Y-16625929D01*
X14691071Y-16683071D01*
X14676786Y-16711643D01*
X14662500Y-16725929D01*
X14633928Y-16740214D01*
X14605357Y-16740214D01*
X14576786Y-16725929D01*
X14562500Y-16711643D01*
X14548214Y-16683071D01*
X14533928Y-16625929D01*
X14533928Y-16554500D01*
X14548214Y-16497357D01*
X14562500Y-16468786D01*
X14576786Y-16454500D01*
X14605357Y-16440214D01*
X14833928Y-16740214D02*
X14833928Y-16540214D01*
X14833928Y-16568786D02*
X14848214Y-16554500D01*
X14876786Y-16540214D01*
X14919643Y-16540214D01*
X14948214Y-16554500D01*
X14962500Y-16583071D01*
X14962500Y-16740214D01*
X14962500Y-16583071D02*
X14976786Y-16554500D01*
X15005357Y-16540214D01*
X15048214Y-16540214D01*
X15076786Y-16554500D01*
X15091071Y-16583071D01*
X15091071Y-16740214D01*
X15233928Y-16740214D02*
X15233928Y-16540214D01*
X15233928Y-16568786D02*
X15248214Y-16554500D01*
X15276786Y-16540214D01*
X15319643Y-16540214D01*
X15348214Y-16554500D01*
X15362500Y-16583071D01*
X15362500Y-16740214D01*
X15362500Y-16583071D02*
X15376786Y-16554500D01*
X15405357Y-16540214D01*
X15448214Y-16540214D01*
X15476786Y-16554500D01*
X15491071Y-16583071D01*
X15491071Y-16740214D01*
X16076786Y-16425929D02*
X15819643Y-16811643D01*
X16462500Y-16440214D02*
X16491071Y-16440214D01*
X16519643Y-16454500D01*
X16533928Y-16468786D01*
X16548214Y-16497357D01*
X16562500Y-16554500D01*
X16562500Y-16625929D01*
X16548214Y-16683071D01*
X16533928Y-16711643D01*
X16519643Y-16725929D01*
X16491071Y-16740214D01*
X16462500Y-16740214D01*
X16433928Y-16725929D01*
X16419643Y-16711643D01*
X16405357Y-16683071D01*
X16391071Y-16625929D01*
X16391071Y-16554500D01*
X16405357Y-16497357D01*
X16419643Y-16468786D01*
X16433928Y-16454500D01*
X16462500Y-16440214D01*
X16691071Y-16711643D02*
X16705357Y-16725929D01*
X16691071Y-16740214D01*
X16676786Y-16725929D01*
X16691071Y-16711643D01*
X16691071Y-16740214D01*
X16891071Y-16440214D02*
X16919643Y-16440214D01*
X16948214Y-16454500D01*
X16962500Y-16468786D01*
X16976786Y-16497357D01*
X16991071Y-16554500D01*
X16991071Y-16625929D01*
X16976786Y-16683071D01*
X16962500Y-16711643D01*
X16948214Y-16725929D01*
X16919643Y-16740214D01*
X16891071Y-16740214D01*
X16862500Y-16725929D01*
X16848214Y-16711643D01*
X16833928Y-16683071D01*
X16819643Y-16625929D01*
X16819643Y-16554500D01*
X16833928Y-16497357D01*
X16848214Y-16468786D01*
X16862500Y-16454500D01*
X16891071Y-16440214D01*
X17091071Y-16440214D02*
X17276786Y-16440214D01*
X17176786Y-16554500D01*
X17219643Y-16554500D01*
X17248214Y-16568786D01*
X17262500Y-16583071D01*
X17276786Y-16611643D01*
X17276786Y-16683071D01*
X17262500Y-16711643D01*
X17248214Y-16725929D01*
X17219643Y-16740214D01*
X17133928Y-16740214D01*
X17105357Y-16725929D01*
X17091071Y-16711643D01*
X17419643Y-16740214D02*
X17476786Y-16740214D01*
X17505357Y-16725929D01*
X17519643Y-16711643D01*
X17548214Y-16668786D01*
X17562500Y-16611643D01*
X17562500Y-16497357D01*
X17548214Y-16468786D01*
X17533928Y-16454500D01*
X17505357Y-16440214D01*
X17448214Y-16440214D01*
X17419643Y-16454500D01*
X17405357Y-16468786D01*
X17391071Y-16497357D01*
X17391071Y-16568786D01*
X17405357Y-16597357D01*
X17419643Y-16611643D01*
X17448214Y-16625929D01*
X17505357Y-16625929D01*
X17533928Y-16611643D01*
X17548214Y-16597357D01*
X17562500Y-16568786D01*
X17676786Y-16440214D02*
X17676786Y-16497357D01*
X17791071Y-16440214D02*
X17791071Y-16497357D01*
X18233928Y-16854500D02*
X18219643Y-16840214D01*
X18191071Y-16797357D01*
X18176786Y-16768786D01*
X18162500Y-16725929D01*
X18148214Y-16654500D01*
X18148214Y-16597357D01*
X18162500Y-16525929D01*
X18176786Y-16483071D01*
X18191071Y-16454500D01*
X18219643Y-16411643D01*
X18233928Y-16397357D01*
X18505357Y-16740214D02*
X18333928Y-16740214D01*
X18419643Y-16740214D02*
X18419643Y-16440214D01*
X18391071Y-16483071D01*
X18362500Y-16511643D01*
X18333928Y-16525929D01*
X18619643Y-16468786D02*
X18633928Y-16454500D01*
X18662500Y-16440214D01*
X18733928Y-16440214D01*
X18762500Y-16454500D01*
X18776786Y-16468786D01*
X18791071Y-16497357D01*
X18791071Y-16525929D01*
X18776786Y-16568786D01*
X18605357Y-16740214D01*
X18791071Y-16740214D01*
X19148214Y-16740214D02*
X19148214Y-16440214D01*
X19276786Y-16740214D02*
X19276786Y-16583071D01*
X19262500Y-16554500D01*
X19233928Y-16540214D01*
X19191071Y-16540214D01*
X19162500Y-16554500D01*
X19148214Y-16568786D01*
X19462500Y-16740214D02*
X19433928Y-16725929D01*
X19419643Y-16711643D01*
X19405357Y-16683071D01*
X19405357Y-16597357D01*
X19419643Y-16568786D01*
X19433928Y-16554500D01*
X19462500Y-16540214D01*
X19505357Y-16540214D01*
X19533928Y-16554500D01*
X19548214Y-16568786D01*
X19562500Y-16597357D01*
X19562500Y-16683071D01*
X19548214Y-16711643D01*
X19533928Y-16725929D01*
X19505357Y-16740214D01*
X19462500Y-16740214D01*
X19733928Y-16740214D02*
X19705357Y-16725929D01*
X19691071Y-16697357D01*
X19691071Y-16440214D01*
X19962500Y-16725929D02*
X19933928Y-16740214D01*
X19876786Y-16740214D01*
X19848214Y-16725929D01*
X19833928Y-16697357D01*
X19833928Y-16583071D01*
X19848214Y-16554500D01*
X19876786Y-16540214D01*
X19933928Y-16540214D01*
X19962500Y-16554500D01*
X19976786Y-16583071D01*
X19976786Y-16611643D01*
X19833928Y-16640214D01*
X20091071Y-16725929D02*
X20119643Y-16740214D01*
X20176786Y-16740214D01*
X20205357Y-16725929D01*
X20219643Y-16697357D01*
X20219643Y-16683071D01*
X20205357Y-16654500D01*
X20176786Y-16640214D01*
X20133928Y-16640214D01*
X20105357Y-16625929D01*
X20091071Y-16597357D01*
X20091071Y-16583071D01*
X20105357Y-16554500D01*
X20133928Y-16540214D01*
X20176786Y-16540214D01*
X20205357Y-16554500D01*
X20319643Y-16854500D02*
X20333928Y-16840214D01*
X20362500Y-16797357D01*
X20376786Y-16768786D01*
X20391071Y-16725929D01*
X20405357Y-16654500D01*
X20405357Y-16597357D01*
X20391071Y-16525929D01*
X20376786Y-16483071D01*
X20362500Y-16454500D01*
X20333928Y-16411643D01*
X20319643Y-16397357D01*
M02*
