G04 #@! TF.GenerationSoftware,KiCad,Pcbnew,(5.1.9)-1*
G04 #@! TF.CreationDate,2024-03-30T13:17:23+00:00*
G04 #@! TF.ProjectId,ezPLAv2.0,657a504c-4176-4322-9e30-2e6b69636164,v2.0*
G04 #@! TF.SameCoordinates,Original*
G04 #@! TF.FileFunction,Copper,L2,Bot*
G04 #@! TF.FilePolarity,Positive*
%FSLAX46Y46*%
G04 Gerber Fmt 4.6, Leading zero omitted, Abs format (unit mm)*
G04 Created by KiCad (PCBNEW (5.1.9)-1) date 2024-03-30 13:17:23*
%MOMM*%
%LPD*%
G01*
G04 APERTURE LIST*
G04 #@! TA.AperFunction,ComponentPad*
%ADD10R,1.600000X1.600000*%
G04 #@! TD*
G04 #@! TA.AperFunction,ComponentPad*
%ADD11O,1.600000X1.600000*%
G04 #@! TD*
G04 #@! TA.AperFunction,ComponentPad*
%ADD12O,1.700000X1.700000*%
G04 #@! TD*
G04 #@! TA.AperFunction,ComponentPad*
%ADD13R,1.700000X1.700000*%
G04 #@! TD*
G04 #@! TA.AperFunction,ComponentPad*
%ADD14C,1.422400*%
G04 #@! TD*
G04 #@! TA.AperFunction,ComponentPad*
%ADD15R,1.422400X1.422400*%
G04 #@! TD*
G04 #@! TA.AperFunction,ComponentPad*
%ADD16C,1.600000*%
G04 #@! TD*
G04 #@! TA.AperFunction,SMDPad,CuDef*
%ADD17R,1.000000X1.500000*%
G04 #@! TD*
G04 #@! TA.AperFunction,ViaPad*
%ADD18C,0.800000*%
G04 #@! TD*
G04 #@! TA.AperFunction,Conductor*
%ADD19C,0.250000*%
G04 #@! TD*
G04 #@! TA.AperFunction,Conductor*
%ADD20C,0.254000*%
G04 #@! TD*
G04 #@! TA.AperFunction,Conductor*
%ADD21C,0.100000*%
G04 #@! TD*
G04 APERTURE END LIST*
D10*
X140227600Y-102617000D03*
D11*
X155467600Y-135637000D03*
X140227600Y-105157000D03*
X155467600Y-133097000D03*
X140227600Y-107697000D03*
X155467600Y-130557000D03*
X140227600Y-110237000D03*
X155467600Y-128017000D03*
X140227600Y-112777000D03*
X155467600Y-125477000D03*
X140227600Y-115317000D03*
X155467600Y-122937000D03*
X140227600Y-117857000D03*
X155467600Y-120397000D03*
X140227600Y-120397000D03*
X155467600Y-117857000D03*
X140227600Y-122937000D03*
X155467600Y-115317000D03*
X140227600Y-125477000D03*
X155467600Y-112777000D03*
X140227600Y-128017000D03*
X155467600Y-110237000D03*
X140227600Y-130557000D03*
X155467600Y-107697000D03*
X140227600Y-133097000D03*
X155467600Y-105157000D03*
X140227600Y-135637000D03*
X155467600Y-102617000D03*
D12*
X149000000Y-103000000D03*
D13*
X146460000Y-103000000D03*
D14*
X156620000Y-111500000D03*
X156620000Y-114040000D03*
X156620000Y-116580000D03*
X156620000Y-119120000D03*
X156620000Y-121660000D03*
X154080000Y-108960000D03*
X154080000Y-114040000D03*
X154080000Y-116580000D03*
X154080000Y-119120000D03*
X154080000Y-121660000D03*
X154080000Y-124200000D03*
X154080000Y-126740000D03*
X151540000Y-126740000D03*
X149000000Y-126740000D03*
X146460000Y-126740000D03*
X143920000Y-126740000D03*
X141380000Y-126740000D03*
X156620000Y-124200000D03*
X151540000Y-124200000D03*
X149000000Y-124200000D03*
X146460000Y-124200000D03*
X143920000Y-124200000D03*
X141380000Y-124200000D03*
X138840000Y-124200000D03*
X138840000Y-121660000D03*
X138840000Y-119120000D03*
X138840000Y-116580000D03*
X138840000Y-114040000D03*
X138840000Y-111500000D03*
X141380000Y-121660000D03*
X141380000Y-119120000D03*
X141380000Y-116580000D03*
X141380000Y-114040000D03*
X141380000Y-111500000D03*
X151540000Y-108960000D03*
X149000000Y-108960000D03*
X141380000Y-108960000D03*
X143920000Y-108960000D03*
X146460000Y-108960000D03*
X154080000Y-111500000D03*
X151540000Y-111500000D03*
X143920000Y-111500000D03*
X146460000Y-111500000D03*
D15*
X149000000Y-111500000D03*
D13*
X142710000Y-135540000D03*
D12*
X142710000Y-133000000D03*
X145250000Y-135540000D03*
X145250000Y-133000000D03*
X147790000Y-135540000D03*
X147790000Y-133000000D03*
X150330000Y-135540000D03*
X150330000Y-133000000D03*
X152870000Y-135540000D03*
X152870000Y-133000000D03*
D16*
X138575000Y-146575000D03*
D11*
X138575000Y-138955000D03*
D17*
X155815000Y-142850000D03*
X154515000Y-142850000D03*
X153215000Y-142850000D03*
D10*
X142675000Y-146525000D03*
D11*
X157915000Y-138905000D03*
X145215000Y-146525000D03*
X155375000Y-138905000D03*
X147755000Y-146525000D03*
X152835000Y-138905000D03*
X150295000Y-146525000D03*
X150295000Y-138905000D03*
X152835000Y-146525000D03*
X147755000Y-138905000D03*
X155375000Y-146525000D03*
X145215000Y-138905000D03*
X157915000Y-146525000D03*
X142675000Y-138905000D03*
D17*
X143540001Y-142850000D03*
X144840001Y-142850000D03*
X150190001Y-142850000D03*
X148890001Y-142850000D03*
D18*
X151975000Y-130925000D03*
X150075000Y-128925000D03*
X153250000Y-137054975D03*
X140050000Y-145025000D03*
X146350000Y-144625000D03*
X157475000Y-140925000D03*
X138426800Y-126523700D03*
X138428300Y-109478500D03*
X152293200Y-122882000D03*
X147781700Y-123557800D03*
X150036600Y-119628000D03*
X157609100Y-125800400D03*
X142650000Y-119740500D03*
X152725000Y-129675000D03*
X150487100Y-107774200D03*
X151002700Y-118617400D03*
X151675000Y-141624998D03*
X148925000Y-140050000D03*
D19*
X146460000Y-126740000D02*
X147474989Y-125725011D01*
X147474989Y-125725011D02*
X148650224Y-125725011D01*
X148650224Y-125725011D02*
X148671835Y-125703400D01*
X148671835Y-125703400D02*
X152576600Y-125703400D01*
X152576600Y-125703400D02*
X154080000Y-124200000D01*
X151223799Y-127776201D02*
X150075000Y-128925000D01*
X152576201Y-127237377D02*
X152037377Y-127776201D01*
X152037377Y-127776201D02*
X151223799Y-127776201D01*
X152576201Y-125703799D02*
X152576201Y-127237377D01*
X154080000Y-124200000D02*
X152576201Y-125703799D01*
X151694999Y-136065661D02*
X152684315Y-137054975D01*
X151694999Y-134175001D02*
X151694999Y-136065661D01*
X152870000Y-133000000D02*
X151694999Y-134175001D01*
X152684315Y-137054975D02*
X153250000Y-137054975D01*
X142689200Y-133020800D02*
X142710000Y-133000000D01*
X142554200Y-133020800D02*
X142689200Y-133020800D01*
X140227600Y-135347400D02*
X142554200Y-133020800D01*
X140227600Y-135637000D02*
X140227600Y-135347400D01*
X138426800Y-126523700D02*
X137800000Y-125896900D01*
X137800000Y-125896900D02*
X137800000Y-122700000D01*
X137800000Y-122700000D02*
X138840000Y-121660000D01*
X155467600Y-102617000D02*
X154342300Y-102617000D01*
X146460000Y-103000000D02*
X147635300Y-103000000D01*
X147635300Y-103000000D02*
X147635300Y-102632700D01*
X147635300Y-102632700D02*
X148460600Y-101807400D01*
X148460600Y-101807400D02*
X153532700Y-101807400D01*
X153532700Y-101807400D02*
X154342300Y-102617000D01*
X138840000Y-111500000D02*
X138428300Y-111088300D01*
X138428300Y-111088300D02*
X138428300Y-109478500D01*
X138840000Y-119120000D02*
X137349700Y-120610300D01*
X137349700Y-120610300D02*
X137349700Y-129288900D01*
X137349700Y-129288900D02*
X139783300Y-131722500D01*
X139783300Y-131722500D02*
X143098900Y-131722500D01*
X143098900Y-131722500D02*
X144022000Y-132645600D01*
X144022000Y-132645600D02*
X144022000Y-133451900D01*
X144022000Y-133451900D02*
X144840100Y-134270000D01*
X144840100Y-134270000D02*
X146520000Y-134270000D01*
X146520000Y-134270000D02*
X147790000Y-135540000D01*
X154080000Y-121660000D02*
X152858000Y-122882000D01*
X152858000Y-122882000D02*
X152293200Y-122882000D01*
X155467600Y-105157000D02*
X155467600Y-106282300D01*
X154080000Y-108960000D02*
X154080000Y-107388600D01*
X154080000Y-107388600D02*
X155186300Y-106282300D01*
X155186300Y-106282300D02*
X155467600Y-106282300D01*
X149892989Y-130557000D02*
X140227600Y-130557000D01*
X153709989Y-126740000D02*
X149892989Y-130557000D01*
X154080000Y-126740000D02*
X153709989Y-126740000D01*
X149000000Y-111500000D02*
X150036500Y-111500000D01*
X150036500Y-111500000D02*
X151299500Y-110237000D01*
X151299500Y-110237000D02*
X155467600Y-110237000D01*
X141833000Y-128017000D02*
X140227600Y-128017000D01*
X142700000Y-127150000D02*
X141833000Y-128017000D01*
X142700000Y-126425000D02*
X142700000Y-127150000D01*
X143850000Y-125275000D02*
X142700000Y-126425000D01*
X148463824Y-125275000D02*
X143850000Y-125275000D01*
X148502623Y-125236201D02*
X148463824Y-125275000D01*
X150503799Y-125236201D02*
X148502623Y-125236201D01*
X151540000Y-124200000D02*
X150503799Y-125236201D01*
X143920000Y-108960000D02*
X145190000Y-110230000D01*
X145190000Y-110230000D02*
X146697000Y-110230000D01*
X146697000Y-110230000D02*
X147889300Y-111422300D01*
X147889300Y-111422300D02*
X147889300Y-112275400D01*
X147889300Y-112275400D02*
X148390900Y-112777000D01*
X148390900Y-112777000D02*
X155467600Y-112777000D01*
X139101700Y-128500700D02*
X139101700Y-127504800D01*
X139427601Y-126276999D02*
X140227600Y-125477000D01*
X139779900Y-129178900D02*
X139101700Y-128500700D01*
X139427601Y-127178899D02*
X139427601Y-126276999D01*
X139101700Y-127504800D02*
X139427601Y-127178899D01*
X150534212Y-126740000D02*
X148095312Y-129178900D01*
X148095312Y-129178900D02*
X139779900Y-129178900D01*
X151540000Y-126740000D02*
X150534212Y-126740000D01*
X143920000Y-111500000D02*
X147737000Y-115317000D01*
X147737000Y-115317000D02*
X155467600Y-115317000D01*
X141352900Y-122937000D02*
X147160900Y-122937000D01*
X147160900Y-122937000D02*
X147781700Y-123557800D01*
X140227600Y-122937000D02*
X141352900Y-122937000D01*
X141380000Y-108960000D02*
X142650000Y-110230000D01*
X142650000Y-110230000D02*
X142650000Y-111704700D01*
X142650000Y-111704700D02*
X148802300Y-117857000D01*
X148802300Y-117857000D02*
X155467600Y-117857000D01*
X149000000Y-124200000D02*
X149000000Y-123750300D01*
X149000000Y-123750300D02*
X145715500Y-120465800D01*
X145715500Y-120465800D02*
X141421700Y-120465800D01*
X141421700Y-120465800D02*
X141352900Y-120397000D01*
X140227600Y-120397000D02*
X141352900Y-120397000D01*
X155467600Y-120397000D02*
X150805600Y-120397000D01*
X150805600Y-120397000D02*
X150036600Y-119628000D01*
X157609100Y-125800400D02*
X158162800Y-125246700D01*
X158162800Y-125246700D02*
X158162800Y-113042800D01*
X158162800Y-113042800D02*
X156620000Y-111500000D01*
X156620000Y-114040000D02*
X157660900Y-115080900D01*
X157660900Y-115080900D02*
X157660900Y-124673900D01*
X157660900Y-124673900D02*
X156857800Y-125477000D01*
X156857800Y-125477000D02*
X155467600Y-125477000D01*
X140227600Y-112777000D02*
X141599900Y-112777000D01*
X141599900Y-112777000D02*
X142650000Y-113827100D01*
X142650000Y-113827100D02*
X142650000Y-119740500D01*
X142675000Y-146525000D02*
X145215000Y-146525000D01*
X142675000Y-146075000D02*
X141475000Y-144875000D01*
X142675000Y-146525000D02*
X142675000Y-146075000D01*
X140950000Y-144350000D02*
X141475000Y-144875000D01*
X148150000Y-137250000D02*
X141975000Y-137250000D01*
X149150001Y-132024999D02*
X149150001Y-136249999D01*
X140950000Y-138275000D02*
X140950000Y-144350000D01*
X141975000Y-137250000D02*
X140950000Y-138275000D01*
X151500000Y-129675000D02*
X149150001Y-132024999D01*
X149150001Y-136249999D02*
X148150000Y-137250000D01*
X152725000Y-129675000D02*
X151500000Y-129675000D01*
X140227600Y-107697000D02*
X141370000Y-106554600D01*
X141370000Y-106554600D02*
X141370000Y-104670200D01*
X141370000Y-104670200D02*
X140710700Y-104010900D01*
X140710700Y-104010900D02*
X139751200Y-104010900D01*
X139751200Y-104010900D02*
X137252700Y-106509400D01*
X137252700Y-106509400D02*
X137252700Y-114992700D01*
X137252700Y-114992700D02*
X138840000Y-116580000D01*
X154080000Y-119120000D02*
X151505300Y-119120000D01*
X151505300Y-119120000D02*
X151002700Y-118617400D01*
X154232600Y-104028700D02*
X150487100Y-107774200D01*
X156001700Y-104028700D02*
X154232600Y-104028700D01*
X158613100Y-106640100D02*
X156001700Y-104028700D01*
X158613100Y-129084400D02*
X158613100Y-106640100D01*
X155467600Y-132229900D02*
X158613100Y-129084400D01*
X155467600Y-133097000D02*
X155467600Y-132229900D01*
X140227600Y-106282300D02*
X139946300Y-106282300D01*
X139946300Y-106282300D02*
X137703000Y-108525600D01*
X137703000Y-108525600D02*
X137703000Y-112903000D01*
X137703000Y-112903000D02*
X138840000Y-114040000D01*
X140227600Y-105157000D02*
X140227600Y-106282300D01*
X153200000Y-142775000D02*
X153225000Y-142800000D01*
X150190001Y-142850000D02*
X150449998Y-142850000D01*
X150449998Y-142850000D02*
X151675000Y-141624998D01*
X151924998Y-141624998D02*
X151675000Y-141624998D01*
X151675000Y-141624998D02*
X152900002Y-142850000D01*
X151674999Y-138180000D02*
X151675000Y-141624998D01*
X152075000Y-137779999D02*
X151674999Y-138180000D01*
X154250001Y-137273001D02*
X153743003Y-137779999D01*
X153743003Y-137779999D02*
X152075000Y-137779999D01*
X154250001Y-129234599D02*
X154250001Y-137273001D01*
X152900002Y-142850000D02*
X153215000Y-142850000D01*
X155467600Y-128017000D02*
X154250001Y-129234599D01*
X147755000Y-146525000D02*
X150295000Y-146525000D01*
X150295000Y-146525000D02*
X152835000Y-146525000D01*
X154750000Y-146525000D02*
X155375000Y-146525000D01*
X154515000Y-145665000D02*
X154515000Y-142850000D01*
X155375000Y-146525000D02*
X154515000Y-145665000D01*
X152835000Y-138905000D02*
X153200000Y-139270000D01*
X155375000Y-142410000D02*
X155815000Y-142850000D01*
X155375000Y-138905000D02*
X155375000Y-142410000D01*
X144840001Y-142850000D02*
X146125000Y-142850000D01*
X146125000Y-142850000D02*
X148925000Y-140050000D01*
X149215001Y-142825000D02*
X149190001Y-142850000D01*
X150295000Y-138905000D02*
X150224990Y-138975010D01*
X150295000Y-138905000D02*
X150295000Y-139655000D01*
X148739992Y-142465007D02*
X148739992Y-142850000D01*
X150295000Y-140909999D02*
X148739992Y-142465007D01*
X150295000Y-138905000D02*
X150295000Y-140909999D01*
D20*
X159340001Y-106418252D02*
X159318646Y-106347853D01*
X159248074Y-106215824D01*
X159153101Y-106100099D01*
X159124103Y-106076301D01*
X156580899Y-103533097D01*
X156582237Y-103531759D01*
X156739280Y-103296727D01*
X156847453Y-103035574D01*
X156902600Y-102758335D01*
X156902600Y-102475665D01*
X156847453Y-102198426D01*
X156739280Y-101937273D01*
X156582237Y-101702241D01*
X156382359Y-101502363D01*
X156147327Y-101345320D01*
X155886174Y-101237147D01*
X155608935Y-101182000D01*
X155326265Y-101182000D01*
X155049026Y-101237147D01*
X154787873Y-101345320D01*
X154552841Y-101502363D01*
X154427653Y-101627551D01*
X154096503Y-101296402D01*
X154072701Y-101267399D01*
X153956976Y-101172426D01*
X153824947Y-101101854D01*
X153681686Y-101058397D01*
X153570033Y-101047400D01*
X153570022Y-101047400D01*
X153532700Y-101043724D01*
X153495378Y-101047400D01*
X148497922Y-101047400D01*
X148460599Y-101043724D01*
X148423276Y-101047400D01*
X148423267Y-101047400D01*
X148311614Y-101058397D01*
X148168353Y-101101854D01*
X148036324Y-101172426D01*
X148036322Y-101172427D01*
X148036323Y-101172427D01*
X147949596Y-101243601D01*
X147949592Y-101243605D01*
X147920599Y-101267399D01*
X147896805Y-101296392D01*
X147605349Y-101587849D01*
X147554180Y-101560498D01*
X147434482Y-101524188D01*
X147310000Y-101511928D01*
X145610000Y-101511928D01*
X145485518Y-101524188D01*
X145365820Y-101560498D01*
X145255506Y-101619463D01*
X145158815Y-101698815D01*
X145079463Y-101795506D01*
X145020498Y-101905820D01*
X144984188Y-102025518D01*
X144971928Y-102150000D01*
X144971928Y-103850000D01*
X144984188Y-103974482D01*
X145020498Y-104094180D01*
X145079463Y-104204494D01*
X145158815Y-104301185D01*
X145255506Y-104380537D01*
X145365820Y-104439502D01*
X145485518Y-104475812D01*
X145610000Y-104488072D01*
X147310000Y-104488072D01*
X147434482Y-104475812D01*
X147554180Y-104439502D01*
X147664494Y-104380537D01*
X147761185Y-104301185D01*
X147840537Y-104204494D01*
X147899502Y-104094180D01*
X147923966Y-104013534D01*
X147999731Y-104097588D01*
X148233080Y-104271641D01*
X148495901Y-104396825D01*
X148643110Y-104441476D01*
X148873000Y-104320155D01*
X148873000Y-103127000D01*
X149127000Y-103127000D01*
X149127000Y-104320155D01*
X149356890Y-104441476D01*
X149504099Y-104396825D01*
X149766920Y-104271641D01*
X150000269Y-104097588D01*
X150195178Y-103881355D01*
X150344157Y-103631252D01*
X150441481Y-103356891D01*
X150320814Y-103127000D01*
X149127000Y-103127000D01*
X148873000Y-103127000D01*
X148853000Y-103127000D01*
X148853000Y-102873000D01*
X148873000Y-102873000D01*
X148873000Y-102853000D01*
X149127000Y-102853000D01*
X149127000Y-102873000D01*
X150320814Y-102873000D01*
X150441481Y-102643109D01*
X150414625Y-102567400D01*
X153217899Y-102567400D01*
X153778501Y-103128002D01*
X153802299Y-103157001D01*
X153918024Y-103251974D01*
X154011063Y-103301705D01*
X153942361Y-103322545D01*
X153940353Y-103323154D01*
X153808323Y-103393726D01*
X153743286Y-103447101D01*
X153692599Y-103488699D01*
X153668801Y-103517697D01*
X150447299Y-106739200D01*
X150385161Y-106739200D01*
X150185202Y-106778974D01*
X149996844Y-106856995D01*
X149827326Y-106970263D01*
X149683163Y-107114426D01*
X149569895Y-107283944D01*
X149491874Y-107472302D01*
X149452100Y-107672261D01*
X149452100Y-107690149D01*
X149392672Y-107665533D01*
X149132589Y-107613800D01*
X148867411Y-107613800D01*
X148607328Y-107665533D01*
X148362335Y-107767013D01*
X148141847Y-107914338D01*
X147954338Y-108101847D01*
X147807013Y-108322335D01*
X147730000Y-108508260D01*
X147652987Y-108322335D01*
X147505662Y-108101847D01*
X147318153Y-107914338D01*
X147097665Y-107767013D01*
X146852672Y-107665533D01*
X146592589Y-107613800D01*
X146327411Y-107613800D01*
X146067328Y-107665533D01*
X145822335Y-107767013D01*
X145601847Y-107914338D01*
X145414338Y-108101847D01*
X145267013Y-108322335D01*
X145190000Y-108508260D01*
X145112987Y-108322335D01*
X144965662Y-108101847D01*
X144778153Y-107914338D01*
X144557665Y-107767013D01*
X144312672Y-107665533D01*
X144052589Y-107613800D01*
X143787411Y-107613800D01*
X143527328Y-107665533D01*
X143282335Y-107767013D01*
X143061847Y-107914338D01*
X142874338Y-108101847D01*
X142727013Y-108322335D01*
X142650000Y-108508260D01*
X142572987Y-108322335D01*
X142425662Y-108101847D01*
X142238153Y-107914338D01*
X142017665Y-107767013D01*
X141772672Y-107665533D01*
X141662600Y-107643639D01*
X141662600Y-107555665D01*
X141626288Y-107373114D01*
X141881004Y-107118398D01*
X141910001Y-107094601D01*
X142004974Y-106978876D01*
X142075546Y-106846847D01*
X142119003Y-106703586D01*
X142130000Y-106591933D01*
X142130000Y-106591932D01*
X142133677Y-106554600D01*
X142130000Y-106517267D01*
X142130000Y-104707522D01*
X142133676Y-104670199D01*
X142130000Y-104632877D01*
X142130000Y-104632867D01*
X142119003Y-104521214D01*
X142075546Y-104377953D01*
X142035561Y-104303147D01*
X142004974Y-104245923D01*
X141933799Y-104159197D01*
X141910001Y-104130199D01*
X141881002Y-104106400D01*
X141552709Y-103778108D01*
X141558137Y-103771494D01*
X141617102Y-103661180D01*
X141653412Y-103541482D01*
X141665672Y-103417000D01*
X141665672Y-101817000D01*
X141653412Y-101692518D01*
X141617102Y-101572820D01*
X141558137Y-101462506D01*
X141478785Y-101365815D01*
X141382094Y-101286463D01*
X141271780Y-101227498D01*
X141152082Y-101191188D01*
X141027600Y-101178928D01*
X139427600Y-101178928D01*
X139303118Y-101191188D01*
X139183420Y-101227498D01*
X139073106Y-101286463D01*
X138976415Y-101365815D01*
X138897063Y-101462506D01*
X138838098Y-101572820D01*
X138801788Y-101692518D01*
X138789528Y-101817000D01*
X138789528Y-103417000D01*
X138801788Y-103541482D01*
X138838098Y-103661180D01*
X138897063Y-103771494D01*
X138905511Y-103781788D01*
X136741703Y-105945596D01*
X136712699Y-105969399D01*
X136683379Y-106005126D01*
X136617726Y-106085124D01*
X136547865Y-106215823D01*
X136547154Y-106217154D01*
X136503697Y-106360415D01*
X136492700Y-106472068D01*
X136492700Y-106472078D01*
X136489024Y-106509400D01*
X136492700Y-106546722D01*
X136492701Y-114955368D01*
X136489024Y-114992700D01*
X136503698Y-115141685D01*
X136547154Y-115284946D01*
X136617726Y-115416976D01*
X136657948Y-115465986D01*
X136712700Y-115532701D01*
X136741698Y-115556499D01*
X137516830Y-116331631D01*
X137493800Y-116447411D01*
X137493800Y-116712589D01*
X137545533Y-116972672D01*
X137647013Y-117217665D01*
X137794338Y-117438153D01*
X137981847Y-117625662D01*
X138202335Y-117772987D01*
X138388260Y-117850000D01*
X138202335Y-117927013D01*
X137981847Y-118074338D01*
X137794338Y-118261847D01*
X137647013Y-118482335D01*
X137545533Y-118727328D01*
X137493800Y-118987411D01*
X137493800Y-119252589D01*
X137516830Y-119368368D01*
X136838702Y-120046497D01*
X136809699Y-120070299D01*
X136781424Y-120104753D01*
X136714726Y-120186024D01*
X136681591Y-120248015D01*
X136644154Y-120318054D01*
X136600697Y-120461315D01*
X136589700Y-120572968D01*
X136589700Y-120572978D01*
X136586024Y-120610300D01*
X136589700Y-120647622D01*
X136589701Y-129251568D01*
X136586024Y-129288900D01*
X136589701Y-129326233D01*
X136600698Y-129437886D01*
X136613880Y-129481342D01*
X136644154Y-129581146D01*
X136714726Y-129713176D01*
X136784667Y-129798398D01*
X136809700Y-129828901D01*
X136838698Y-129852699D01*
X139140601Y-132154603D01*
X139112963Y-132182241D01*
X138955920Y-132417273D01*
X138847747Y-132678426D01*
X138792600Y-132955665D01*
X138792600Y-133238335D01*
X138847747Y-133515574D01*
X138955920Y-133776727D01*
X139112963Y-134011759D01*
X139312841Y-134211637D01*
X139547873Y-134368680D01*
X139558465Y-134373067D01*
X139372469Y-134484615D01*
X139164081Y-134673586D01*
X138996563Y-134899580D01*
X138876354Y-135153913D01*
X138835696Y-135287961D01*
X138957685Y-135510000D01*
X140100600Y-135510000D01*
X140100600Y-135490000D01*
X140354600Y-135490000D01*
X140354600Y-135510000D01*
X140374600Y-135510000D01*
X140374600Y-135764000D01*
X140354600Y-135764000D01*
X140354600Y-136907624D01*
X140576640Y-137028909D01*
X140841481Y-136934070D01*
X141082731Y-136789385D01*
X141266914Y-136622364D01*
X141270498Y-136634180D01*
X141329463Y-136744494D01*
X141363829Y-136786369D01*
X140439002Y-137711196D01*
X140409999Y-137734999D01*
X140354871Y-137802174D01*
X140315026Y-137850724D01*
X140258997Y-137955546D01*
X140244454Y-137982754D01*
X140200997Y-138126015D01*
X140190000Y-138237668D01*
X140190000Y-138237678D01*
X140186324Y-138275000D01*
X140190000Y-138312323D01*
X140190001Y-144312668D01*
X140186324Y-144350000D01*
X140190001Y-144387333D01*
X140196245Y-144450723D01*
X140200998Y-144498985D01*
X140244454Y-144642246D01*
X140315026Y-144774276D01*
X140386201Y-144861002D01*
X140410000Y-144890001D01*
X140438998Y-144913799D01*
X140963997Y-145438799D01*
X140964002Y-145438803D01*
X141238118Y-145712919D01*
X141236928Y-145725000D01*
X141236928Y-147325000D01*
X141249188Y-147449482D01*
X141285498Y-147569180D01*
X141344463Y-147679494D01*
X141423815Y-147776185D01*
X141501574Y-147840000D01*
X139264724Y-147840000D01*
X139489759Y-147689637D01*
X139689637Y-147489759D01*
X139846680Y-147254727D01*
X139954853Y-146993574D01*
X140010000Y-146716335D01*
X140010000Y-146433665D01*
X139954853Y-146156426D01*
X139846680Y-145895273D01*
X139689637Y-145660241D01*
X139489759Y-145460363D01*
X139254727Y-145303320D01*
X138993574Y-145195147D01*
X138716335Y-145140000D01*
X138433665Y-145140000D01*
X138156426Y-145195147D01*
X137895273Y-145303320D01*
X137660241Y-145460363D01*
X137460363Y-145660241D01*
X137303320Y-145895273D01*
X137195147Y-146156426D01*
X137140000Y-146433665D01*
X137140000Y-146716335D01*
X137195147Y-146993574D01*
X137303320Y-147254727D01*
X137460363Y-147489759D01*
X137660241Y-147689637D01*
X137885276Y-147840000D01*
X136160000Y-147840000D01*
X136160000Y-139304040D01*
X137183091Y-139304040D01*
X137277930Y-139568881D01*
X137422615Y-139810131D01*
X137611586Y-140018519D01*
X137837580Y-140186037D01*
X138091913Y-140306246D01*
X138225961Y-140346904D01*
X138448000Y-140224915D01*
X138448000Y-139082000D01*
X138702000Y-139082000D01*
X138702000Y-140224915D01*
X138924039Y-140346904D01*
X139058087Y-140306246D01*
X139312420Y-140186037D01*
X139538414Y-140018519D01*
X139727385Y-139810131D01*
X139872070Y-139568881D01*
X139966909Y-139304040D01*
X139845624Y-139082000D01*
X138702000Y-139082000D01*
X138448000Y-139082000D01*
X137304376Y-139082000D01*
X137183091Y-139304040D01*
X136160000Y-139304040D01*
X136160000Y-138605960D01*
X137183091Y-138605960D01*
X137304376Y-138828000D01*
X138448000Y-138828000D01*
X138448000Y-137685085D01*
X138702000Y-137685085D01*
X138702000Y-138828000D01*
X139845624Y-138828000D01*
X139966909Y-138605960D01*
X139872070Y-138341119D01*
X139727385Y-138099869D01*
X139538414Y-137891481D01*
X139312420Y-137723963D01*
X139058087Y-137603754D01*
X138924039Y-137563096D01*
X138702000Y-137685085D01*
X138448000Y-137685085D01*
X138225961Y-137563096D01*
X138091913Y-137603754D01*
X137837580Y-137723963D01*
X137611586Y-137891481D01*
X137422615Y-138099869D01*
X137277930Y-138341119D01*
X137183091Y-138605960D01*
X136160000Y-138605960D01*
X136160000Y-135986039D01*
X138835696Y-135986039D01*
X138876354Y-136120087D01*
X138996563Y-136374420D01*
X139164081Y-136600414D01*
X139372469Y-136789385D01*
X139613719Y-136934070D01*
X139878560Y-137028909D01*
X140100600Y-136907624D01*
X140100600Y-135764000D01*
X138957685Y-135764000D01*
X138835696Y-135986039D01*
X136160000Y-135986039D01*
X136160000Y-99660000D01*
X159340001Y-99660000D01*
X159340001Y-106418252D01*
G04 #@! TA.AperFunction,Conductor*
D21*
G36*
X159340001Y-106418252D02*
G01*
X159318646Y-106347853D01*
X159248074Y-106215824D01*
X159153101Y-106100099D01*
X159124103Y-106076301D01*
X156580899Y-103533097D01*
X156582237Y-103531759D01*
X156739280Y-103296727D01*
X156847453Y-103035574D01*
X156902600Y-102758335D01*
X156902600Y-102475665D01*
X156847453Y-102198426D01*
X156739280Y-101937273D01*
X156582237Y-101702241D01*
X156382359Y-101502363D01*
X156147327Y-101345320D01*
X155886174Y-101237147D01*
X155608935Y-101182000D01*
X155326265Y-101182000D01*
X155049026Y-101237147D01*
X154787873Y-101345320D01*
X154552841Y-101502363D01*
X154427653Y-101627551D01*
X154096503Y-101296402D01*
X154072701Y-101267399D01*
X153956976Y-101172426D01*
X153824947Y-101101854D01*
X153681686Y-101058397D01*
X153570033Y-101047400D01*
X153570022Y-101047400D01*
X153532700Y-101043724D01*
X153495378Y-101047400D01*
X148497922Y-101047400D01*
X148460599Y-101043724D01*
X148423276Y-101047400D01*
X148423267Y-101047400D01*
X148311614Y-101058397D01*
X148168353Y-101101854D01*
X148036324Y-101172426D01*
X148036322Y-101172427D01*
X148036323Y-101172427D01*
X147949596Y-101243601D01*
X147949592Y-101243605D01*
X147920599Y-101267399D01*
X147896805Y-101296392D01*
X147605349Y-101587849D01*
X147554180Y-101560498D01*
X147434482Y-101524188D01*
X147310000Y-101511928D01*
X145610000Y-101511928D01*
X145485518Y-101524188D01*
X145365820Y-101560498D01*
X145255506Y-101619463D01*
X145158815Y-101698815D01*
X145079463Y-101795506D01*
X145020498Y-101905820D01*
X144984188Y-102025518D01*
X144971928Y-102150000D01*
X144971928Y-103850000D01*
X144984188Y-103974482D01*
X145020498Y-104094180D01*
X145079463Y-104204494D01*
X145158815Y-104301185D01*
X145255506Y-104380537D01*
X145365820Y-104439502D01*
X145485518Y-104475812D01*
X145610000Y-104488072D01*
X147310000Y-104488072D01*
X147434482Y-104475812D01*
X147554180Y-104439502D01*
X147664494Y-104380537D01*
X147761185Y-104301185D01*
X147840537Y-104204494D01*
X147899502Y-104094180D01*
X147923966Y-104013534D01*
X147999731Y-104097588D01*
X148233080Y-104271641D01*
X148495901Y-104396825D01*
X148643110Y-104441476D01*
X148873000Y-104320155D01*
X148873000Y-103127000D01*
X149127000Y-103127000D01*
X149127000Y-104320155D01*
X149356890Y-104441476D01*
X149504099Y-104396825D01*
X149766920Y-104271641D01*
X150000269Y-104097588D01*
X150195178Y-103881355D01*
X150344157Y-103631252D01*
X150441481Y-103356891D01*
X150320814Y-103127000D01*
X149127000Y-103127000D01*
X148873000Y-103127000D01*
X148853000Y-103127000D01*
X148853000Y-102873000D01*
X148873000Y-102873000D01*
X148873000Y-102853000D01*
X149127000Y-102853000D01*
X149127000Y-102873000D01*
X150320814Y-102873000D01*
X150441481Y-102643109D01*
X150414625Y-102567400D01*
X153217899Y-102567400D01*
X153778501Y-103128002D01*
X153802299Y-103157001D01*
X153918024Y-103251974D01*
X154011063Y-103301705D01*
X153942361Y-103322545D01*
X153940353Y-103323154D01*
X153808323Y-103393726D01*
X153743286Y-103447101D01*
X153692599Y-103488699D01*
X153668801Y-103517697D01*
X150447299Y-106739200D01*
X150385161Y-106739200D01*
X150185202Y-106778974D01*
X149996844Y-106856995D01*
X149827326Y-106970263D01*
X149683163Y-107114426D01*
X149569895Y-107283944D01*
X149491874Y-107472302D01*
X149452100Y-107672261D01*
X149452100Y-107690149D01*
X149392672Y-107665533D01*
X149132589Y-107613800D01*
X148867411Y-107613800D01*
X148607328Y-107665533D01*
X148362335Y-107767013D01*
X148141847Y-107914338D01*
X147954338Y-108101847D01*
X147807013Y-108322335D01*
X147730000Y-108508260D01*
X147652987Y-108322335D01*
X147505662Y-108101847D01*
X147318153Y-107914338D01*
X147097665Y-107767013D01*
X146852672Y-107665533D01*
X146592589Y-107613800D01*
X146327411Y-107613800D01*
X146067328Y-107665533D01*
X145822335Y-107767013D01*
X145601847Y-107914338D01*
X145414338Y-108101847D01*
X145267013Y-108322335D01*
X145190000Y-108508260D01*
X145112987Y-108322335D01*
X144965662Y-108101847D01*
X144778153Y-107914338D01*
X144557665Y-107767013D01*
X144312672Y-107665533D01*
X144052589Y-107613800D01*
X143787411Y-107613800D01*
X143527328Y-107665533D01*
X143282335Y-107767013D01*
X143061847Y-107914338D01*
X142874338Y-108101847D01*
X142727013Y-108322335D01*
X142650000Y-108508260D01*
X142572987Y-108322335D01*
X142425662Y-108101847D01*
X142238153Y-107914338D01*
X142017665Y-107767013D01*
X141772672Y-107665533D01*
X141662600Y-107643639D01*
X141662600Y-107555665D01*
X141626288Y-107373114D01*
X141881004Y-107118398D01*
X141910001Y-107094601D01*
X142004974Y-106978876D01*
X142075546Y-106846847D01*
X142119003Y-106703586D01*
X142130000Y-106591933D01*
X142130000Y-106591932D01*
X142133677Y-106554600D01*
X142130000Y-106517267D01*
X142130000Y-104707522D01*
X142133676Y-104670199D01*
X142130000Y-104632877D01*
X142130000Y-104632867D01*
X142119003Y-104521214D01*
X142075546Y-104377953D01*
X142035561Y-104303147D01*
X142004974Y-104245923D01*
X141933799Y-104159197D01*
X141910001Y-104130199D01*
X141881002Y-104106400D01*
X141552709Y-103778108D01*
X141558137Y-103771494D01*
X141617102Y-103661180D01*
X141653412Y-103541482D01*
X141665672Y-103417000D01*
X141665672Y-101817000D01*
X141653412Y-101692518D01*
X141617102Y-101572820D01*
X141558137Y-101462506D01*
X141478785Y-101365815D01*
X141382094Y-101286463D01*
X141271780Y-101227498D01*
X141152082Y-101191188D01*
X141027600Y-101178928D01*
X139427600Y-101178928D01*
X139303118Y-101191188D01*
X139183420Y-101227498D01*
X139073106Y-101286463D01*
X138976415Y-101365815D01*
X138897063Y-101462506D01*
X138838098Y-101572820D01*
X138801788Y-101692518D01*
X138789528Y-101817000D01*
X138789528Y-103417000D01*
X138801788Y-103541482D01*
X138838098Y-103661180D01*
X138897063Y-103771494D01*
X138905511Y-103781788D01*
X136741703Y-105945596D01*
X136712699Y-105969399D01*
X136683379Y-106005126D01*
X136617726Y-106085124D01*
X136547865Y-106215823D01*
X136547154Y-106217154D01*
X136503697Y-106360415D01*
X136492700Y-106472068D01*
X136492700Y-106472078D01*
X136489024Y-106509400D01*
X136492700Y-106546722D01*
X136492701Y-114955368D01*
X136489024Y-114992700D01*
X136503698Y-115141685D01*
X136547154Y-115284946D01*
X136617726Y-115416976D01*
X136657948Y-115465986D01*
X136712700Y-115532701D01*
X136741698Y-115556499D01*
X137516830Y-116331631D01*
X137493800Y-116447411D01*
X137493800Y-116712589D01*
X137545533Y-116972672D01*
X137647013Y-117217665D01*
X137794338Y-117438153D01*
X137981847Y-117625662D01*
X138202335Y-117772987D01*
X138388260Y-117850000D01*
X138202335Y-117927013D01*
X137981847Y-118074338D01*
X137794338Y-118261847D01*
X137647013Y-118482335D01*
X137545533Y-118727328D01*
X137493800Y-118987411D01*
X137493800Y-119252589D01*
X137516830Y-119368368D01*
X136838702Y-120046497D01*
X136809699Y-120070299D01*
X136781424Y-120104753D01*
X136714726Y-120186024D01*
X136681591Y-120248015D01*
X136644154Y-120318054D01*
X136600697Y-120461315D01*
X136589700Y-120572968D01*
X136589700Y-120572978D01*
X136586024Y-120610300D01*
X136589700Y-120647622D01*
X136589701Y-129251568D01*
X136586024Y-129288900D01*
X136589701Y-129326233D01*
X136600698Y-129437886D01*
X136613880Y-129481342D01*
X136644154Y-129581146D01*
X136714726Y-129713176D01*
X136784667Y-129798398D01*
X136809700Y-129828901D01*
X136838698Y-129852699D01*
X139140601Y-132154603D01*
X139112963Y-132182241D01*
X138955920Y-132417273D01*
X138847747Y-132678426D01*
X138792600Y-132955665D01*
X138792600Y-133238335D01*
X138847747Y-133515574D01*
X138955920Y-133776727D01*
X139112963Y-134011759D01*
X139312841Y-134211637D01*
X139547873Y-134368680D01*
X139558465Y-134373067D01*
X139372469Y-134484615D01*
X139164081Y-134673586D01*
X138996563Y-134899580D01*
X138876354Y-135153913D01*
X138835696Y-135287961D01*
X138957685Y-135510000D01*
X140100600Y-135510000D01*
X140100600Y-135490000D01*
X140354600Y-135490000D01*
X140354600Y-135510000D01*
X140374600Y-135510000D01*
X140374600Y-135764000D01*
X140354600Y-135764000D01*
X140354600Y-136907624D01*
X140576640Y-137028909D01*
X140841481Y-136934070D01*
X141082731Y-136789385D01*
X141266914Y-136622364D01*
X141270498Y-136634180D01*
X141329463Y-136744494D01*
X141363829Y-136786369D01*
X140439002Y-137711196D01*
X140409999Y-137734999D01*
X140354871Y-137802174D01*
X140315026Y-137850724D01*
X140258997Y-137955546D01*
X140244454Y-137982754D01*
X140200997Y-138126015D01*
X140190000Y-138237668D01*
X140190000Y-138237678D01*
X140186324Y-138275000D01*
X140190000Y-138312323D01*
X140190001Y-144312668D01*
X140186324Y-144350000D01*
X140190001Y-144387333D01*
X140196245Y-144450723D01*
X140200998Y-144498985D01*
X140244454Y-144642246D01*
X140315026Y-144774276D01*
X140386201Y-144861002D01*
X140410000Y-144890001D01*
X140438998Y-144913799D01*
X140963997Y-145438799D01*
X140964002Y-145438803D01*
X141238118Y-145712919D01*
X141236928Y-145725000D01*
X141236928Y-147325000D01*
X141249188Y-147449482D01*
X141285498Y-147569180D01*
X141344463Y-147679494D01*
X141423815Y-147776185D01*
X141501574Y-147840000D01*
X139264724Y-147840000D01*
X139489759Y-147689637D01*
X139689637Y-147489759D01*
X139846680Y-147254727D01*
X139954853Y-146993574D01*
X140010000Y-146716335D01*
X140010000Y-146433665D01*
X139954853Y-146156426D01*
X139846680Y-145895273D01*
X139689637Y-145660241D01*
X139489759Y-145460363D01*
X139254727Y-145303320D01*
X138993574Y-145195147D01*
X138716335Y-145140000D01*
X138433665Y-145140000D01*
X138156426Y-145195147D01*
X137895273Y-145303320D01*
X137660241Y-145460363D01*
X137460363Y-145660241D01*
X137303320Y-145895273D01*
X137195147Y-146156426D01*
X137140000Y-146433665D01*
X137140000Y-146716335D01*
X137195147Y-146993574D01*
X137303320Y-147254727D01*
X137460363Y-147489759D01*
X137660241Y-147689637D01*
X137885276Y-147840000D01*
X136160000Y-147840000D01*
X136160000Y-139304040D01*
X137183091Y-139304040D01*
X137277930Y-139568881D01*
X137422615Y-139810131D01*
X137611586Y-140018519D01*
X137837580Y-140186037D01*
X138091913Y-140306246D01*
X138225961Y-140346904D01*
X138448000Y-140224915D01*
X138448000Y-139082000D01*
X138702000Y-139082000D01*
X138702000Y-140224915D01*
X138924039Y-140346904D01*
X139058087Y-140306246D01*
X139312420Y-140186037D01*
X139538414Y-140018519D01*
X139727385Y-139810131D01*
X139872070Y-139568881D01*
X139966909Y-139304040D01*
X139845624Y-139082000D01*
X138702000Y-139082000D01*
X138448000Y-139082000D01*
X137304376Y-139082000D01*
X137183091Y-139304040D01*
X136160000Y-139304040D01*
X136160000Y-138605960D01*
X137183091Y-138605960D01*
X137304376Y-138828000D01*
X138448000Y-138828000D01*
X138448000Y-137685085D01*
X138702000Y-137685085D01*
X138702000Y-138828000D01*
X139845624Y-138828000D01*
X139966909Y-138605960D01*
X139872070Y-138341119D01*
X139727385Y-138099869D01*
X139538414Y-137891481D01*
X139312420Y-137723963D01*
X139058087Y-137603754D01*
X138924039Y-137563096D01*
X138702000Y-137685085D01*
X138448000Y-137685085D01*
X138225961Y-137563096D01*
X138091913Y-137603754D01*
X137837580Y-137723963D01*
X137611586Y-137891481D01*
X137422615Y-138099869D01*
X137277930Y-138341119D01*
X137183091Y-138605960D01*
X136160000Y-138605960D01*
X136160000Y-135986039D01*
X138835696Y-135986039D01*
X138876354Y-136120087D01*
X138996563Y-136374420D01*
X139164081Y-136600414D01*
X139372469Y-136789385D01*
X139613719Y-136934070D01*
X139878560Y-137028909D01*
X140100600Y-136907624D01*
X140100600Y-135764000D01*
X138957685Y-135764000D01*
X138835696Y-135986039D01*
X136160000Y-135986039D01*
X136160000Y-99660000D01*
X159340001Y-99660000D01*
X159340001Y-106418252D01*
G37*
G04 #@! TD.AperFunction*
D20*
X159340000Y-146397998D02*
X159185625Y-146397998D01*
X159306909Y-146175960D01*
X159212070Y-145911119D01*
X159067385Y-145669869D01*
X158878414Y-145461481D01*
X158652420Y-145293963D01*
X158398087Y-145173754D01*
X158264039Y-145133096D01*
X158042000Y-145255085D01*
X158042000Y-146398000D01*
X158062000Y-146398000D01*
X158062000Y-146652000D01*
X158042000Y-146652000D01*
X158042000Y-146672000D01*
X157788000Y-146672000D01*
X157788000Y-146652000D01*
X157768000Y-146652000D01*
X157768000Y-146398000D01*
X157788000Y-146398000D01*
X157788000Y-145255085D01*
X157565961Y-145133096D01*
X157431913Y-145173754D01*
X157177580Y-145293963D01*
X156951586Y-145461481D01*
X156762615Y-145669869D01*
X156651067Y-145855865D01*
X156646680Y-145845273D01*
X156489637Y-145610241D01*
X156289759Y-145410363D01*
X156054727Y-145253320D01*
X155793574Y-145145147D01*
X155516335Y-145090000D01*
X155275000Y-145090000D01*
X155275000Y-144234132D01*
X155315000Y-144238072D01*
X156315000Y-144238072D01*
X156439482Y-144225812D01*
X156559180Y-144189502D01*
X156669494Y-144130537D01*
X156766185Y-144051185D01*
X156845537Y-143954494D01*
X156904502Y-143844180D01*
X156940812Y-143724482D01*
X156953072Y-143600000D01*
X156953072Y-142100000D01*
X156940812Y-141975518D01*
X156904502Y-141855820D01*
X156845537Y-141745506D01*
X156766185Y-141648815D01*
X156669494Y-141569463D01*
X156559180Y-141510498D01*
X156439482Y-141474188D01*
X156315000Y-141461928D01*
X156135000Y-141461928D01*
X156135000Y-140123043D01*
X156289759Y-140019637D01*
X156489637Y-139819759D01*
X156645000Y-139587241D01*
X156800363Y-139819759D01*
X157000241Y-140019637D01*
X157235273Y-140176680D01*
X157496426Y-140284853D01*
X157773665Y-140340000D01*
X158056335Y-140340000D01*
X158333574Y-140284853D01*
X158594727Y-140176680D01*
X158829759Y-140019637D01*
X159029637Y-139819759D01*
X159186680Y-139584727D01*
X159294853Y-139323574D01*
X159340000Y-139096607D01*
X159340000Y-146397998D01*
G04 #@! TA.AperFunction,Conductor*
D21*
G36*
X159340000Y-146397998D02*
G01*
X159185625Y-146397998D01*
X159306909Y-146175960D01*
X159212070Y-145911119D01*
X159067385Y-145669869D01*
X158878414Y-145461481D01*
X158652420Y-145293963D01*
X158398087Y-145173754D01*
X158264039Y-145133096D01*
X158042000Y-145255085D01*
X158042000Y-146398000D01*
X158062000Y-146398000D01*
X158062000Y-146652000D01*
X158042000Y-146652000D01*
X158042000Y-146672000D01*
X157788000Y-146672000D01*
X157788000Y-146652000D01*
X157768000Y-146652000D01*
X157768000Y-146398000D01*
X157788000Y-146398000D01*
X157788000Y-145255085D01*
X157565961Y-145133096D01*
X157431913Y-145173754D01*
X157177580Y-145293963D01*
X156951586Y-145461481D01*
X156762615Y-145669869D01*
X156651067Y-145855865D01*
X156646680Y-145845273D01*
X156489637Y-145610241D01*
X156289759Y-145410363D01*
X156054727Y-145253320D01*
X155793574Y-145145147D01*
X155516335Y-145090000D01*
X155275000Y-145090000D01*
X155275000Y-144234132D01*
X155315000Y-144238072D01*
X156315000Y-144238072D01*
X156439482Y-144225812D01*
X156559180Y-144189502D01*
X156669494Y-144130537D01*
X156766185Y-144051185D01*
X156845537Y-143954494D01*
X156904502Y-143844180D01*
X156940812Y-143724482D01*
X156953072Y-143600000D01*
X156953072Y-142100000D01*
X156940812Y-141975518D01*
X156904502Y-141855820D01*
X156845537Y-141745506D01*
X156766185Y-141648815D01*
X156669494Y-141569463D01*
X156559180Y-141510498D01*
X156439482Y-141474188D01*
X156315000Y-141461928D01*
X156135000Y-141461928D01*
X156135000Y-140123043D01*
X156289759Y-140019637D01*
X156489637Y-139819759D01*
X156645000Y-139587241D01*
X156800363Y-139819759D01*
X157000241Y-140019637D01*
X157235273Y-140176680D01*
X157496426Y-140284853D01*
X157773665Y-140340000D01*
X158056335Y-140340000D01*
X158333574Y-140284853D01*
X158594727Y-140176680D01*
X158829759Y-140019637D01*
X159029637Y-139819759D01*
X159186680Y-139584727D01*
X159294853Y-139323574D01*
X159340000Y-139096607D01*
X159340000Y-146397998D01*
G37*
G04 #@! TD.AperFunction*
D20*
X146640363Y-139819759D02*
X146840241Y-140019637D01*
X147075273Y-140176680D01*
X147336426Y-140284853D01*
X147569069Y-140331129D01*
X145956240Y-141943959D01*
X145929503Y-141855820D01*
X145870538Y-141745506D01*
X145791186Y-141648815D01*
X145694495Y-141569463D01*
X145584181Y-141510498D01*
X145464483Y-141474188D01*
X145340001Y-141461928D01*
X144340001Y-141461928D01*
X144215519Y-141474188D01*
X144190001Y-141481929D01*
X144164483Y-141474188D01*
X144040001Y-141461928D01*
X143825751Y-141465000D01*
X143667001Y-141623750D01*
X143667001Y-142723000D01*
X143687001Y-142723000D01*
X143687001Y-142977000D01*
X143667001Y-142977000D01*
X143667001Y-144076250D01*
X143825751Y-144235000D01*
X144040001Y-144238072D01*
X144164483Y-144225812D01*
X144190001Y-144218071D01*
X144215519Y-144225812D01*
X144340001Y-144238072D01*
X145340001Y-144238072D01*
X145464483Y-144225812D01*
X145584181Y-144189502D01*
X145694495Y-144130537D01*
X145791186Y-144051185D01*
X145870538Y-143954494D01*
X145929503Y-143844180D01*
X145965813Y-143724482D01*
X145977088Y-143610000D01*
X146087678Y-143610000D01*
X146125000Y-143613676D01*
X146162322Y-143610000D01*
X146162333Y-143610000D01*
X146273986Y-143599003D01*
X146417247Y-143555546D01*
X146549276Y-143484974D01*
X146665001Y-143390001D01*
X146688804Y-143360997D01*
X147751929Y-142297872D01*
X147751929Y-143600000D01*
X147764189Y-143724482D01*
X147800499Y-143844180D01*
X147859464Y-143954494D01*
X147938816Y-144051185D01*
X148035507Y-144130537D01*
X148145821Y-144189502D01*
X148265519Y-144225812D01*
X148390001Y-144238072D01*
X149390001Y-144238072D01*
X149514483Y-144225812D01*
X149540001Y-144218071D01*
X149565519Y-144225812D01*
X149690001Y-144238072D01*
X150690001Y-144238072D01*
X150814483Y-144225812D01*
X150934181Y-144189502D01*
X151044495Y-144130537D01*
X151141186Y-144051185D01*
X151220538Y-143954494D01*
X151279503Y-143844180D01*
X151315813Y-143724482D01*
X151328073Y-143600000D01*
X151328073Y-143046727D01*
X151675000Y-142699800D01*
X152076928Y-143101729D01*
X152076928Y-143600000D01*
X152089188Y-143724482D01*
X152125498Y-143844180D01*
X152184463Y-143954494D01*
X152263815Y-144051185D01*
X152360506Y-144130537D01*
X152470820Y-144189502D01*
X152590518Y-144225812D01*
X152715000Y-144238072D01*
X153715000Y-144238072D01*
X153755001Y-144234132D01*
X153755000Y-145415604D01*
X153749759Y-145410363D01*
X153514727Y-145253320D01*
X153253574Y-145145147D01*
X152976335Y-145090000D01*
X152693665Y-145090000D01*
X152416426Y-145145147D01*
X152155273Y-145253320D01*
X151920241Y-145410363D01*
X151720363Y-145610241D01*
X151616957Y-145765000D01*
X151513043Y-145765000D01*
X151409637Y-145610241D01*
X151209759Y-145410363D01*
X150974727Y-145253320D01*
X150713574Y-145145147D01*
X150436335Y-145090000D01*
X150153665Y-145090000D01*
X149876426Y-145145147D01*
X149615273Y-145253320D01*
X149380241Y-145410363D01*
X149180363Y-145610241D01*
X149076957Y-145765000D01*
X148973043Y-145765000D01*
X148869637Y-145610241D01*
X148669759Y-145410363D01*
X148434727Y-145253320D01*
X148173574Y-145145147D01*
X147896335Y-145090000D01*
X147613665Y-145090000D01*
X147336426Y-145145147D01*
X147075273Y-145253320D01*
X146840241Y-145410363D01*
X146640363Y-145610241D01*
X146485000Y-145842759D01*
X146329637Y-145610241D01*
X146129759Y-145410363D01*
X145894727Y-145253320D01*
X145633574Y-145145147D01*
X145356335Y-145090000D01*
X145073665Y-145090000D01*
X144796426Y-145145147D01*
X144535273Y-145253320D01*
X144300241Y-145410363D01*
X144101643Y-145608961D01*
X144100812Y-145600518D01*
X144064502Y-145480820D01*
X144005537Y-145370506D01*
X143926185Y-145273815D01*
X143829494Y-145194463D01*
X143719180Y-145135498D01*
X143599482Y-145099188D01*
X143475000Y-145086928D01*
X142761730Y-145086928D01*
X142038803Y-144364002D01*
X142038799Y-144363997D01*
X141710000Y-144035199D01*
X141710000Y-143600000D01*
X142401929Y-143600000D01*
X142414189Y-143724482D01*
X142450499Y-143844180D01*
X142509464Y-143954494D01*
X142588816Y-144051185D01*
X142685507Y-144130537D01*
X142795821Y-144189502D01*
X142915519Y-144225812D01*
X143040001Y-144238072D01*
X143254251Y-144235000D01*
X143413001Y-144076250D01*
X143413001Y-142977000D01*
X142563751Y-142977000D01*
X142405001Y-143135750D01*
X142401929Y-143600000D01*
X141710000Y-143600000D01*
X141710000Y-142100000D01*
X142401929Y-142100000D01*
X142405001Y-142564250D01*
X142563751Y-142723000D01*
X143413001Y-142723000D01*
X143413001Y-141623750D01*
X143254251Y-141465000D01*
X143040001Y-141461928D01*
X142915519Y-141474188D01*
X142795821Y-141510498D01*
X142685507Y-141569463D01*
X142588816Y-141648815D01*
X142509464Y-141745506D01*
X142450499Y-141855820D01*
X142414189Y-141975518D01*
X142401929Y-142100000D01*
X141710000Y-142100000D01*
X141710000Y-139969396D01*
X141760241Y-140019637D01*
X141995273Y-140176680D01*
X142256426Y-140284853D01*
X142533665Y-140340000D01*
X142816335Y-140340000D01*
X143093574Y-140284853D01*
X143354727Y-140176680D01*
X143589759Y-140019637D01*
X143789637Y-139819759D01*
X143945000Y-139587241D01*
X144100363Y-139819759D01*
X144300241Y-140019637D01*
X144535273Y-140176680D01*
X144796426Y-140284853D01*
X145073665Y-140340000D01*
X145356335Y-140340000D01*
X145633574Y-140284853D01*
X145894727Y-140176680D01*
X146129759Y-140019637D01*
X146329637Y-139819759D01*
X146485000Y-139587241D01*
X146640363Y-139819759D01*
G04 #@! TA.AperFunction,Conductor*
D21*
G36*
X146640363Y-139819759D02*
G01*
X146840241Y-140019637D01*
X147075273Y-140176680D01*
X147336426Y-140284853D01*
X147569069Y-140331129D01*
X145956240Y-141943959D01*
X145929503Y-141855820D01*
X145870538Y-141745506D01*
X145791186Y-141648815D01*
X145694495Y-141569463D01*
X145584181Y-141510498D01*
X145464483Y-141474188D01*
X145340001Y-141461928D01*
X144340001Y-141461928D01*
X144215519Y-141474188D01*
X144190001Y-141481929D01*
X144164483Y-141474188D01*
X144040001Y-141461928D01*
X143825751Y-141465000D01*
X143667001Y-141623750D01*
X143667001Y-142723000D01*
X143687001Y-142723000D01*
X143687001Y-142977000D01*
X143667001Y-142977000D01*
X143667001Y-144076250D01*
X143825751Y-144235000D01*
X144040001Y-144238072D01*
X144164483Y-144225812D01*
X144190001Y-144218071D01*
X144215519Y-144225812D01*
X144340001Y-144238072D01*
X145340001Y-144238072D01*
X145464483Y-144225812D01*
X145584181Y-144189502D01*
X145694495Y-144130537D01*
X145791186Y-144051185D01*
X145870538Y-143954494D01*
X145929503Y-143844180D01*
X145965813Y-143724482D01*
X145977088Y-143610000D01*
X146087678Y-143610000D01*
X146125000Y-143613676D01*
X146162322Y-143610000D01*
X146162333Y-143610000D01*
X146273986Y-143599003D01*
X146417247Y-143555546D01*
X146549276Y-143484974D01*
X146665001Y-143390001D01*
X146688804Y-143360997D01*
X147751929Y-142297872D01*
X147751929Y-143600000D01*
X147764189Y-143724482D01*
X147800499Y-143844180D01*
X147859464Y-143954494D01*
X147938816Y-144051185D01*
X148035507Y-144130537D01*
X148145821Y-144189502D01*
X148265519Y-144225812D01*
X148390001Y-144238072D01*
X149390001Y-144238072D01*
X149514483Y-144225812D01*
X149540001Y-144218071D01*
X149565519Y-144225812D01*
X149690001Y-144238072D01*
X150690001Y-144238072D01*
X150814483Y-144225812D01*
X150934181Y-144189502D01*
X151044495Y-144130537D01*
X151141186Y-144051185D01*
X151220538Y-143954494D01*
X151279503Y-143844180D01*
X151315813Y-143724482D01*
X151328073Y-143600000D01*
X151328073Y-143046727D01*
X151675000Y-142699800D01*
X152076928Y-143101729D01*
X152076928Y-143600000D01*
X152089188Y-143724482D01*
X152125498Y-143844180D01*
X152184463Y-143954494D01*
X152263815Y-144051185D01*
X152360506Y-144130537D01*
X152470820Y-144189502D01*
X152590518Y-144225812D01*
X152715000Y-144238072D01*
X153715000Y-144238072D01*
X153755001Y-144234132D01*
X153755000Y-145415604D01*
X153749759Y-145410363D01*
X153514727Y-145253320D01*
X153253574Y-145145147D01*
X152976335Y-145090000D01*
X152693665Y-145090000D01*
X152416426Y-145145147D01*
X152155273Y-145253320D01*
X151920241Y-145410363D01*
X151720363Y-145610241D01*
X151616957Y-145765000D01*
X151513043Y-145765000D01*
X151409637Y-145610241D01*
X151209759Y-145410363D01*
X150974727Y-145253320D01*
X150713574Y-145145147D01*
X150436335Y-145090000D01*
X150153665Y-145090000D01*
X149876426Y-145145147D01*
X149615273Y-145253320D01*
X149380241Y-145410363D01*
X149180363Y-145610241D01*
X149076957Y-145765000D01*
X148973043Y-145765000D01*
X148869637Y-145610241D01*
X148669759Y-145410363D01*
X148434727Y-145253320D01*
X148173574Y-145145147D01*
X147896335Y-145090000D01*
X147613665Y-145090000D01*
X147336426Y-145145147D01*
X147075273Y-145253320D01*
X146840241Y-145410363D01*
X146640363Y-145610241D01*
X146485000Y-145842759D01*
X146329637Y-145610241D01*
X146129759Y-145410363D01*
X145894727Y-145253320D01*
X145633574Y-145145147D01*
X145356335Y-145090000D01*
X145073665Y-145090000D01*
X144796426Y-145145147D01*
X144535273Y-145253320D01*
X144300241Y-145410363D01*
X144101643Y-145608961D01*
X144100812Y-145600518D01*
X144064502Y-145480820D01*
X144005537Y-145370506D01*
X143926185Y-145273815D01*
X143829494Y-145194463D01*
X143719180Y-145135498D01*
X143599482Y-145099188D01*
X143475000Y-145086928D01*
X142761730Y-145086928D01*
X142038803Y-144364002D01*
X142038799Y-144363997D01*
X141710000Y-144035199D01*
X141710000Y-143600000D01*
X142401929Y-143600000D01*
X142414189Y-143724482D01*
X142450499Y-143844180D01*
X142509464Y-143954494D01*
X142588816Y-144051185D01*
X142685507Y-144130537D01*
X142795821Y-144189502D01*
X142915519Y-144225812D01*
X143040001Y-144238072D01*
X143254251Y-144235000D01*
X143413001Y-144076250D01*
X143413001Y-142977000D01*
X142563751Y-142977000D01*
X142405001Y-143135750D01*
X142401929Y-143600000D01*
X141710000Y-143600000D01*
X141710000Y-142100000D01*
X142401929Y-142100000D01*
X142405001Y-142564250D01*
X142563751Y-142723000D01*
X143413001Y-142723000D01*
X143413001Y-141623750D01*
X143254251Y-141465000D01*
X143040001Y-141461928D01*
X142915519Y-141474188D01*
X142795821Y-141510498D01*
X142685507Y-141569463D01*
X142588816Y-141648815D01*
X142509464Y-141745506D01*
X142450499Y-141855820D01*
X142414189Y-141975518D01*
X142401929Y-142100000D01*
X141710000Y-142100000D01*
X141710000Y-139969396D01*
X141760241Y-140019637D01*
X141995273Y-140176680D01*
X142256426Y-140284853D01*
X142533665Y-140340000D01*
X142816335Y-140340000D01*
X143093574Y-140284853D01*
X143354727Y-140176680D01*
X143589759Y-140019637D01*
X143789637Y-139819759D01*
X143945000Y-139587241D01*
X144100363Y-139819759D01*
X144300241Y-140019637D01*
X144535273Y-140176680D01*
X144796426Y-140284853D01*
X145073665Y-140340000D01*
X145356335Y-140340000D01*
X145633574Y-140284853D01*
X145894727Y-140176680D01*
X146129759Y-140019637D01*
X146329637Y-139819759D01*
X146485000Y-139587241D01*
X146640363Y-139819759D01*
G37*
G04 #@! TD.AperFunction*
D20*
X151716525Y-136486632D02*
X151923368Y-136693475D01*
X152166589Y-136855990D01*
X152436842Y-136967932D01*
X152698598Y-137019999D01*
X152112323Y-137019999D01*
X152075000Y-137016323D01*
X152037677Y-137019999D01*
X152037667Y-137019999D01*
X151926014Y-137030996D01*
X151782753Y-137074453D01*
X151650724Y-137145025D01*
X151534999Y-137239998D01*
X151511196Y-137269002D01*
X151163996Y-137616202D01*
X151134998Y-137640000D01*
X151111200Y-137668998D01*
X151081778Y-137704849D01*
X150974727Y-137633320D01*
X150713574Y-137525147D01*
X150436335Y-137470000D01*
X150153665Y-137470000D01*
X149876426Y-137525147D01*
X149615273Y-137633320D01*
X149380241Y-137790363D01*
X149180363Y-137990241D01*
X149025000Y-138222759D01*
X148869637Y-137990241D01*
X148678684Y-137799288D01*
X148690001Y-137790001D01*
X148713804Y-137760998D01*
X149621927Y-136852875D01*
X149626589Y-136855990D01*
X149896842Y-136967932D01*
X150183740Y-137025000D01*
X150476260Y-137025000D01*
X150763158Y-136967932D01*
X151033411Y-136855990D01*
X151276632Y-136693475D01*
X151483475Y-136486632D01*
X151600000Y-136312240D01*
X151716525Y-136486632D01*
G04 #@! TA.AperFunction,Conductor*
D21*
G36*
X151716525Y-136486632D02*
G01*
X151923368Y-136693475D01*
X152166589Y-136855990D01*
X152436842Y-136967932D01*
X152698598Y-137019999D01*
X152112323Y-137019999D01*
X152075000Y-137016323D01*
X152037677Y-137019999D01*
X152037667Y-137019999D01*
X151926014Y-137030996D01*
X151782753Y-137074453D01*
X151650724Y-137145025D01*
X151534999Y-137239998D01*
X151511196Y-137269002D01*
X151163996Y-137616202D01*
X151134998Y-137640000D01*
X151111200Y-137668998D01*
X151081778Y-137704849D01*
X150974727Y-137633320D01*
X150713574Y-137525147D01*
X150436335Y-137470000D01*
X150153665Y-137470000D01*
X149876426Y-137525147D01*
X149615273Y-137633320D01*
X149380241Y-137790363D01*
X149180363Y-137990241D01*
X149025000Y-138222759D01*
X148869637Y-137990241D01*
X148678684Y-137799288D01*
X148690001Y-137790001D01*
X148713804Y-137760998D01*
X149621927Y-136852875D01*
X149626589Y-136855990D01*
X149896842Y-136967932D01*
X150183740Y-137025000D01*
X150476260Y-137025000D01*
X150763158Y-136967932D01*
X151033411Y-136855990D01*
X151276632Y-136693475D01*
X151483475Y-136486632D01*
X151600000Y-136312240D01*
X151716525Y-136486632D01*
G37*
G04 #@! TD.AperFunction*
D20*
X153490002Y-136958198D02*
X153428202Y-137019999D01*
X153041402Y-137019999D01*
X153303158Y-136967932D01*
X153490002Y-136890539D01*
X153490002Y-136958198D01*
G04 #@! TA.AperFunction,Conductor*
D21*
G36*
X153490002Y-136958198D02*
G01*
X153428202Y-137019999D01*
X153041402Y-137019999D01*
X153303158Y-136967932D01*
X153490002Y-136890539D01*
X153490002Y-136958198D01*
G37*
G04 #@! TD.AperFunction*
D20*
X151674822Y-133881355D02*
X151869731Y-134097588D01*
X152099406Y-134268900D01*
X151923368Y-134386525D01*
X151716525Y-134593368D01*
X151600000Y-134767760D01*
X151483475Y-134593368D01*
X151276632Y-134386525D01*
X151102240Y-134270000D01*
X151276632Y-134153475D01*
X151483475Y-133946632D01*
X151605195Y-133764466D01*
X151674822Y-133881355D01*
G04 #@! TA.AperFunction,Conductor*
D21*
G36*
X151674822Y-133881355D02*
G01*
X151869731Y-134097588D01*
X152099406Y-134268900D01*
X151923368Y-134386525D01*
X151716525Y-134593368D01*
X151600000Y-134767760D01*
X151483475Y-134593368D01*
X151276632Y-134386525D01*
X151102240Y-134270000D01*
X151276632Y-134153475D01*
X151483475Y-133946632D01*
X151605195Y-133764466D01*
X151674822Y-133881355D01*
G37*
G04 #@! TD.AperFunction*
D20*
X142837000Y-132873000D02*
X142857000Y-132873000D01*
X142857000Y-133127000D01*
X142837000Y-133127000D01*
X142837000Y-133147000D01*
X142583000Y-133147000D01*
X142583000Y-133127000D01*
X142563000Y-133127000D01*
X142563000Y-132873000D01*
X142583000Y-132873000D01*
X142583000Y-132853000D01*
X142837000Y-132853000D01*
X142837000Y-132873000D01*
G04 #@! TA.AperFunction,Conductor*
D21*
G36*
X142837000Y-132873000D02*
G01*
X142857000Y-132873000D01*
X142857000Y-133127000D01*
X142837000Y-133127000D01*
X142837000Y-133147000D01*
X142583000Y-133147000D01*
X142583000Y-133127000D01*
X142563000Y-133127000D01*
X142563000Y-132873000D01*
X142583000Y-132873000D01*
X142583000Y-132853000D01*
X142837000Y-132853000D01*
X142837000Y-132873000D01*
G37*
G04 #@! TD.AperFunction*
D20*
X153490001Y-131658380D02*
X153374099Y-131603175D01*
X153226890Y-131558524D01*
X152997000Y-131679845D01*
X152997000Y-132873000D01*
X153017000Y-132873000D01*
X153017000Y-133127000D01*
X152997000Y-133127000D01*
X152997000Y-133147000D01*
X152743000Y-133147000D01*
X152743000Y-133127000D01*
X152723000Y-133127000D01*
X152723000Y-132873000D01*
X152743000Y-132873000D01*
X152743000Y-131679845D01*
X152513110Y-131558524D01*
X152365901Y-131603175D01*
X152103080Y-131728359D01*
X151869731Y-131902412D01*
X151674822Y-132118645D01*
X151605195Y-132235534D01*
X151483475Y-132053368D01*
X151276632Y-131846525D01*
X151033411Y-131684010D01*
X150763158Y-131572068D01*
X150691907Y-131557895D01*
X151814803Y-130435000D01*
X152021289Y-130435000D01*
X152065226Y-130478937D01*
X152234744Y-130592205D01*
X152423102Y-130670226D01*
X152623061Y-130710000D01*
X152826939Y-130710000D01*
X153026898Y-130670226D01*
X153215256Y-130592205D01*
X153384774Y-130478937D01*
X153490001Y-130373710D01*
X153490001Y-131658380D01*
G04 #@! TA.AperFunction,Conductor*
D21*
G36*
X153490001Y-131658380D02*
G01*
X153374099Y-131603175D01*
X153226890Y-131558524D01*
X152997000Y-131679845D01*
X152997000Y-132873000D01*
X153017000Y-132873000D01*
X153017000Y-133127000D01*
X152997000Y-133127000D01*
X152997000Y-133147000D01*
X152743000Y-133147000D01*
X152743000Y-133127000D01*
X152723000Y-133127000D01*
X152723000Y-132873000D01*
X152743000Y-132873000D01*
X152743000Y-131679845D01*
X152513110Y-131558524D01*
X152365901Y-131603175D01*
X152103080Y-131728359D01*
X151869731Y-131902412D01*
X151674822Y-132118645D01*
X151605195Y-132235534D01*
X151483475Y-132053368D01*
X151276632Y-131846525D01*
X151033411Y-131684010D01*
X150763158Y-131572068D01*
X150691907Y-131557895D01*
X151814803Y-130435000D01*
X152021289Y-130435000D01*
X152065226Y-130478937D01*
X152234744Y-130592205D01*
X152423102Y-130670226D01*
X152623061Y-130710000D01*
X152826939Y-130710000D01*
X153026898Y-130670226D01*
X153215256Y-130592205D01*
X153384774Y-130478937D01*
X153490001Y-130373710D01*
X153490001Y-131658380D01*
G37*
G04 #@! TD.AperFunction*
D20*
X150681847Y-127785662D02*
X150902335Y-127932987D01*
X151147328Y-128034467D01*
X151308635Y-128066553D01*
X149578188Y-129797000D01*
X148540149Y-129797000D01*
X148635313Y-129718901D01*
X148659116Y-129689897D01*
X150622600Y-127726415D01*
X150681847Y-127785662D01*
G04 #@! TA.AperFunction,Conductor*
D21*
G36*
X150681847Y-127785662D02*
G01*
X150902335Y-127932987D01*
X151147328Y-128034467D01*
X151308635Y-128066553D01*
X149578188Y-129797000D01*
X148540149Y-129797000D01*
X148635313Y-129718901D01*
X148659116Y-129689897D01*
X150622600Y-127726415D01*
X150681847Y-127785662D01*
G37*
G04 #@! TD.AperFunction*
D20*
X146653748Y-126725858D02*
X146639605Y-126740000D01*
X147389273Y-127489668D01*
X147624183Y-127428848D01*
X147732206Y-127197066D01*
X147807013Y-127377665D01*
X147954338Y-127598153D01*
X148141847Y-127785662D01*
X148304840Y-127894570D01*
X147780511Y-128418900D01*
X142505901Y-128418900D01*
X143108181Y-127816621D01*
X143282335Y-127932987D01*
X143527328Y-128034467D01*
X143787411Y-128086200D01*
X144052589Y-128086200D01*
X144312672Y-128034467D01*
X144557665Y-127932987D01*
X144778153Y-127785662D01*
X144894542Y-127669273D01*
X145710332Y-127669273D01*
X145771152Y-127904183D01*
X146011509Y-128016202D01*
X146269102Y-128079176D01*
X146534030Y-128090687D01*
X146796113Y-128050291D01*
X147045280Y-127959542D01*
X147148848Y-127904183D01*
X147209668Y-127669273D01*
X146460000Y-126919605D01*
X145710332Y-127669273D01*
X144894542Y-127669273D01*
X144965662Y-127598153D01*
X145112987Y-127377665D01*
X145190969Y-127189400D01*
X145240458Y-127325280D01*
X145295817Y-127428848D01*
X145530727Y-127489668D01*
X146280395Y-126740000D01*
X146266253Y-126725858D01*
X146445858Y-126546253D01*
X146460000Y-126560395D01*
X146474143Y-126546253D01*
X146653748Y-126725858D01*
G04 #@! TA.AperFunction,Conductor*
D21*
G36*
X146653748Y-126725858D02*
G01*
X146639605Y-126740000D01*
X147389273Y-127489668D01*
X147624183Y-127428848D01*
X147732206Y-127197066D01*
X147807013Y-127377665D01*
X147954338Y-127598153D01*
X148141847Y-127785662D01*
X148304840Y-127894570D01*
X147780511Y-128418900D01*
X142505901Y-128418900D01*
X143108181Y-127816621D01*
X143282335Y-127932987D01*
X143527328Y-128034467D01*
X143787411Y-128086200D01*
X144052589Y-128086200D01*
X144312672Y-128034467D01*
X144557665Y-127932987D01*
X144778153Y-127785662D01*
X144894542Y-127669273D01*
X145710332Y-127669273D01*
X145771152Y-127904183D01*
X146011509Y-128016202D01*
X146269102Y-128079176D01*
X146534030Y-128090687D01*
X146796113Y-128050291D01*
X147045280Y-127959542D01*
X147148848Y-127904183D01*
X147209668Y-127669273D01*
X146460000Y-126919605D01*
X145710332Y-127669273D01*
X144894542Y-127669273D01*
X144965662Y-127598153D01*
X145112987Y-127377665D01*
X145190969Y-127189400D01*
X145240458Y-127325280D01*
X145295817Y-127428848D01*
X145530727Y-127489668D01*
X146280395Y-126740000D01*
X146266253Y-126725858D01*
X146445858Y-126546253D01*
X146460000Y-126560395D01*
X146474143Y-126546253D01*
X146653748Y-126725858D01*
G37*
G04 #@! TD.AperFunction*
D20*
X154273748Y-124185858D02*
X154259605Y-124200000D01*
X154273748Y-124214143D01*
X154094143Y-124393748D01*
X154080000Y-124379605D01*
X153330332Y-125129273D01*
X153391152Y-125364183D01*
X153622934Y-125472206D01*
X153442335Y-125547013D01*
X153221847Y-125694338D01*
X153034338Y-125881847D01*
X152887013Y-126102335D01*
X152810000Y-126288260D01*
X152732987Y-126102335D01*
X152585662Y-125881847D01*
X152398153Y-125694338D01*
X152177665Y-125547013D01*
X151991740Y-125470000D01*
X152177665Y-125392987D01*
X152398153Y-125245662D01*
X152585662Y-125058153D01*
X152732987Y-124837665D01*
X152810969Y-124649400D01*
X152860458Y-124785280D01*
X152915817Y-124888848D01*
X153150727Y-124949668D01*
X153900395Y-124200000D01*
X153886253Y-124185858D01*
X154065858Y-124006253D01*
X154080000Y-124020395D01*
X154094143Y-124006253D01*
X154273748Y-124185858D01*
G04 #@! TA.AperFunction,Conductor*
D21*
G36*
X154273748Y-124185858D02*
G01*
X154259605Y-124200000D01*
X154273748Y-124214143D01*
X154094143Y-124393748D01*
X154080000Y-124379605D01*
X153330332Y-125129273D01*
X153391152Y-125364183D01*
X153622934Y-125472206D01*
X153442335Y-125547013D01*
X153221847Y-125694338D01*
X153034338Y-125881847D01*
X152887013Y-126102335D01*
X152810000Y-126288260D01*
X152732987Y-126102335D01*
X152585662Y-125881847D01*
X152398153Y-125694338D01*
X152177665Y-125547013D01*
X151991740Y-125470000D01*
X152177665Y-125392987D01*
X152398153Y-125245662D01*
X152585662Y-125058153D01*
X152732987Y-124837665D01*
X152810969Y-124649400D01*
X152860458Y-124785280D01*
X152915817Y-124888848D01*
X153150727Y-124949668D01*
X153900395Y-124200000D01*
X153886253Y-124185858D01*
X154065858Y-124006253D01*
X154080000Y-124020395D01*
X154094143Y-124006253D01*
X154273748Y-124185858D01*
G37*
G04 #@! TD.AperFunction*
D20*
X141573748Y-114025858D02*
X141559605Y-114040000D01*
X141573748Y-114054143D01*
X141394143Y-114233748D01*
X141380000Y-114219605D01*
X141365858Y-114233748D01*
X141186253Y-114054143D01*
X141200395Y-114040000D01*
X141186253Y-114025858D01*
X141365858Y-113846253D01*
X141380000Y-113860395D01*
X141394143Y-113846253D01*
X141573748Y-114025858D01*
G04 #@! TA.AperFunction,Conductor*
D21*
G36*
X141573748Y-114025858D02*
G01*
X141559605Y-114040000D01*
X141573748Y-114054143D01*
X141394143Y-114233748D01*
X141380000Y-114219605D01*
X141365858Y-114233748D01*
X141186253Y-114054143D01*
X141200395Y-114040000D01*
X141186253Y-114025858D01*
X141365858Y-113846253D01*
X141380000Y-113860395D01*
X141394143Y-113846253D01*
X141573748Y-114025858D01*
G37*
G04 #@! TD.AperFunction*
D20*
X154087747Y-105575574D02*
X154195920Y-105836727D01*
X154340576Y-106053221D01*
X153568998Y-106824801D01*
X153540000Y-106848599D01*
X153516202Y-106877597D01*
X153516201Y-106877598D01*
X153445026Y-106964324D01*
X153374454Y-107096354D01*
X153330998Y-107239615D01*
X153316324Y-107388600D01*
X153320001Y-107425932D01*
X153320001Y-107848754D01*
X153221847Y-107914338D01*
X153034338Y-108101847D01*
X152887013Y-108322335D01*
X152809031Y-108510600D01*
X152759542Y-108374720D01*
X152704183Y-108271152D01*
X152469273Y-108210332D01*
X151719605Y-108960000D01*
X151733748Y-108974143D01*
X151554143Y-109153748D01*
X151540000Y-109139605D01*
X151525858Y-109153748D01*
X151346253Y-108974143D01*
X151360395Y-108960000D01*
X151346253Y-108945858D01*
X151525858Y-108766253D01*
X151540000Y-108780395D01*
X152289668Y-108030727D01*
X152228848Y-107795817D01*
X151988491Y-107683798D01*
X151730898Y-107620824D01*
X151715928Y-107620174D01*
X154033457Y-105302645D01*
X154087747Y-105575574D01*
G04 #@! TA.AperFunction,Conductor*
D21*
G36*
X154087747Y-105575574D02*
G01*
X154195920Y-105836727D01*
X154340576Y-106053221D01*
X153568998Y-106824801D01*
X153540000Y-106848599D01*
X153516202Y-106877597D01*
X153516201Y-106877598D01*
X153445026Y-106964324D01*
X153374454Y-107096354D01*
X153330998Y-107239615D01*
X153316324Y-107388600D01*
X153320001Y-107425932D01*
X153320001Y-107848754D01*
X153221847Y-107914338D01*
X153034338Y-108101847D01*
X152887013Y-108322335D01*
X152809031Y-108510600D01*
X152759542Y-108374720D01*
X152704183Y-108271152D01*
X152469273Y-108210332D01*
X151719605Y-108960000D01*
X151733748Y-108974143D01*
X151554143Y-109153748D01*
X151540000Y-109139605D01*
X151525858Y-109153748D01*
X151346253Y-108974143D01*
X151360395Y-108960000D01*
X151346253Y-108945858D01*
X151525858Y-108766253D01*
X151540000Y-108780395D01*
X152289668Y-108030727D01*
X152228848Y-107795817D01*
X151988491Y-107683798D01*
X151730898Y-107620824D01*
X151715928Y-107620174D01*
X154033457Y-105302645D01*
X154087747Y-105575574D01*
G37*
G04 #@! TD.AperFunction*
M02*
