G04 #@! TF.GenerationSoftware,KiCad,Pcbnew,(5.1.9)-1*
G04 #@! TF.CreationDate,2024-03-30T13:17:23+00:00*
G04 #@! TF.ProjectId,ezPLAv2.0,657a504c-4176-4322-9e30-2e6b69636164,v2.0*
G04 #@! TF.SameCoordinates,Original*
G04 #@! TF.FileFunction,Soldermask,Top*
G04 #@! TF.FilePolarity,Negative*
%FSLAX46Y46*%
G04 Gerber Fmt 4.6, Leading zero omitted, Abs format (unit mm)*
G04 Created by KiCad (PCBNEW (5.1.9)-1) date 2024-03-30 13:17:23*
%MOMM*%
%LPD*%
G01*
G04 APERTURE LIST*
%ADD10R,1.600000X1.600000*%
%ADD11O,1.600000X1.600000*%
%ADD12O,1.700000X1.700000*%
%ADD13R,1.700000X1.700000*%
%ADD14C,1.422400*%
%ADD15R,1.422400X1.422400*%
%ADD16C,1.600000*%
G04 APERTURE END LIST*
D10*
X140227600Y-102617000D03*
D11*
X155467600Y-135637000D03*
X140227600Y-105157000D03*
X155467600Y-133097000D03*
X140227600Y-107697000D03*
X155467600Y-130557000D03*
X140227600Y-110237000D03*
X155467600Y-128017000D03*
X140227600Y-112777000D03*
X155467600Y-125477000D03*
X140227600Y-115317000D03*
X155467600Y-122937000D03*
X140227600Y-117857000D03*
X155467600Y-120397000D03*
X140227600Y-120397000D03*
X155467600Y-117857000D03*
X140227600Y-122937000D03*
X155467600Y-115317000D03*
X140227600Y-125477000D03*
X155467600Y-112777000D03*
X140227600Y-128017000D03*
X155467600Y-110237000D03*
X140227600Y-130557000D03*
X155467600Y-107697000D03*
X140227600Y-133097000D03*
X155467600Y-105157000D03*
X140227600Y-135637000D03*
X155467600Y-102617000D03*
D12*
X149000000Y-103000000D03*
D13*
X146460000Y-103000000D03*
D14*
X156620000Y-111500000D03*
X156620000Y-114040000D03*
X156620000Y-116580000D03*
X156620000Y-119120000D03*
X156620000Y-121660000D03*
X154080000Y-108960000D03*
X154080000Y-114040000D03*
X154080000Y-116580000D03*
X154080000Y-119120000D03*
X154080000Y-121660000D03*
X154080000Y-124200000D03*
X154080000Y-126740000D03*
X151540000Y-126740000D03*
X149000000Y-126740000D03*
X146460000Y-126740000D03*
X143920000Y-126740000D03*
X141380000Y-126740000D03*
X156620000Y-124200000D03*
X151540000Y-124200000D03*
X149000000Y-124200000D03*
X146460000Y-124200000D03*
X143920000Y-124200000D03*
X141380000Y-124200000D03*
X138840000Y-124200000D03*
X138840000Y-121660000D03*
X138840000Y-119120000D03*
X138840000Y-116580000D03*
X138840000Y-114040000D03*
X138840000Y-111500000D03*
X141380000Y-121660000D03*
X141380000Y-119120000D03*
X141380000Y-116580000D03*
X141380000Y-114040000D03*
X141380000Y-111500000D03*
X151540000Y-108960000D03*
X149000000Y-108960000D03*
X141380000Y-108960000D03*
X143920000Y-108960000D03*
X146460000Y-108960000D03*
X154080000Y-111500000D03*
X151540000Y-111500000D03*
X143920000Y-111500000D03*
X146460000Y-111500000D03*
D15*
X149000000Y-111500000D03*
D13*
X142710000Y-135540000D03*
D12*
X142710000Y-133000000D03*
X145250000Y-135540000D03*
X145250000Y-133000000D03*
X147790000Y-135540000D03*
X147790000Y-133000000D03*
X150330000Y-135540000D03*
X150330000Y-133000000D03*
X152870000Y-135540000D03*
X152870000Y-133000000D03*
D16*
X138575000Y-146575000D03*
D11*
X138575000Y-138955000D03*
D10*
X142675000Y-146525000D03*
D11*
X157915000Y-138905000D03*
X145215000Y-146525000D03*
X155375000Y-138905000D03*
X147755000Y-146525000D03*
X152835000Y-138905000D03*
X150295000Y-146525000D03*
X150295000Y-138905000D03*
X152835000Y-146525000D03*
X147755000Y-138905000D03*
X155375000Y-146525000D03*
X145215000Y-138905000D03*
X157915000Y-146525000D03*
X142675000Y-138905000D03*
M02*
