G04 #@! TF.GenerationSoftware,KiCad,Pcbnew,(5.1.9)-1*
G04 #@! TF.CreationDate,2023-07-22T23:25:38+01:00*
G04 #@! TF.ProjectId,ezPLAv2.0,657a504c-4176-4322-9e30-2e6b69636164,v2.0*
G04 #@! TF.SameCoordinates,Original*
G04 #@! TF.FileFunction,Legend,Top*
G04 #@! TF.FilePolarity,Positive*
%FSLAX46Y46*%
G04 Gerber Fmt 4.6, Leading zero omitted, Abs format (unit mm)*
G04 Created by KiCad (PCBNEW (5.1.9)-1) date 2023-07-22 23:25:38*
%MOMM*%
%LPD*%
G01*
G04 APERTURE LIST*
%ADD10C,0.150000*%
%ADD11C,0.200000*%
%ADD12C,0.120000*%
%ADD13R,1.600000X1.600000*%
%ADD14O,1.600000X1.600000*%
%ADD15O,1.700000X1.700000*%
%ADD16R,1.700000X1.700000*%
%ADD17C,1.422400*%
%ADD18R,1.422400X1.422400*%
%ADD19C,1.600000*%
G04 APERTURE END LIST*
D10*
X147157142Y-142327380D02*
X147823809Y-142327380D01*
X147395238Y-143327380D01*
X148633333Y-142660714D02*
X148633333Y-143327380D01*
X148395238Y-142279761D02*
X148157142Y-142994047D01*
X148776190Y-142994047D01*
X149633333Y-143327380D02*
X149157142Y-143327380D01*
X149157142Y-142327380D01*
X149919047Y-143279761D02*
X150061904Y-143327380D01*
X150300000Y-143327380D01*
X150395238Y-143279761D01*
X150442857Y-143232142D01*
X150490476Y-143136904D01*
X150490476Y-143041666D01*
X150442857Y-142946428D01*
X150395238Y-142898809D01*
X150300000Y-142851190D01*
X150109523Y-142803571D01*
X150014285Y-142755952D01*
X149966666Y-142708333D01*
X149919047Y-142613095D01*
X149919047Y-142517857D01*
X149966666Y-142422619D01*
X150014285Y-142375000D01*
X150109523Y-142327380D01*
X150347619Y-142327380D01*
X150490476Y-142375000D01*
X151109523Y-142327380D02*
X151204761Y-142327380D01*
X151300000Y-142375000D01*
X151347619Y-142422619D01*
X151395238Y-142517857D01*
X151442857Y-142708333D01*
X151442857Y-142946428D01*
X151395238Y-143136904D01*
X151347619Y-143232142D01*
X151300000Y-143279761D01*
X151204761Y-143327380D01*
X151109523Y-143327380D01*
X151014285Y-143279761D01*
X150966666Y-143232142D01*
X150919047Y-143136904D01*
X150871428Y-142946428D01*
X150871428Y-142708333D01*
X150919047Y-142517857D01*
X150966666Y-142422619D01*
X151014285Y-142375000D01*
X151109523Y-142327380D01*
X152061904Y-142327380D02*
X152157142Y-142327380D01*
X152252380Y-142375000D01*
X152300000Y-142422619D01*
X152347619Y-142517857D01*
X152395238Y-142708333D01*
X152395238Y-142946428D01*
X152347619Y-143136904D01*
X152300000Y-143232142D01*
X152252380Y-143279761D01*
X152157142Y-143327380D01*
X152061904Y-143327380D01*
X151966666Y-143279761D01*
X151919047Y-143232142D01*
X151871428Y-143136904D01*
X151823809Y-142946428D01*
X151823809Y-142708333D01*
X151871428Y-142517857D01*
X151919047Y-142422619D01*
X151966666Y-142375000D01*
X152061904Y-142327380D01*
D11*
X139052380Y-142994047D02*
X139052380Y-143565476D01*
X139052380Y-143279761D02*
X138052380Y-143279761D01*
X138195238Y-143375000D01*
X138290476Y-143470238D01*
X138338095Y-143565476D01*
X139052380Y-142565476D02*
X138052380Y-142565476D01*
X138671428Y-142470238D02*
X139052380Y-142184523D01*
X138385714Y-142184523D02*
X138766666Y-142565476D01*
D10*
X144509523Y-116078571D02*
X144842857Y-116078571D01*
X144985714Y-116602380D02*
X144509523Y-116602380D01*
X144509523Y-115602380D01*
X144985714Y-115602380D01*
X145414285Y-116602380D02*
X145414285Y-115602380D01*
X145795238Y-115602380D01*
X145890476Y-115650000D01*
X145938095Y-115697619D01*
X145985714Y-115792857D01*
X145985714Y-115935714D01*
X145938095Y-116030952D01*
X145890476Y-116078571D01*
X145795238Y-116126190D01*
X145414285Y-116126190D01*
X146414285Y-116602380D02*
X146414285Y-115602380D01*
X146747619Y-116316666D01*
X147080952Y-115602380D01*
X147080952Y-116602380D01*
X147461904Y-115602380D02*
X148128571Y-115602380D01*
X147700000Y-116602380D01*
X148700000Y-115602380D02*
X148795238Y-115602380D01*
X148890476Y-115650000D01*
X148938095Y-115697619D01*
X148985714Y-115792857D01*
X149033333Y-115983333D01*
X149033333Y-116221428D01*
X148985714Y-116411904D01*
X148938095Y-116507142D01*
X148890476Y-116554761D01*
X148795238Y-116602380D01*
X148700000Y-116602380D01*
X148604761Y-116554761D01*
X148557142Y-116507142D01*
X148509523Y-116411904D01*
X148461904Y-116221428D01*
X148461904Y-115983333D01*
X148509523Y-115792857D01*
X148557142Y-115697619D01*
X148604761Y-115650000D01*
X148700000Y-115602380D01*
X149366666Y-115602380D02*
X149985714Y-115602380D01*
X149652380Y-115983333D01*
X149795238Y-115983333D01*
X149890476Y-116030952D01*
X149938095Y-116078571D01*
X149985714Y-116173809D01*
X149985714Y-116411904D01*
X149938095Y-116507142D01*
X149890476Y-116554761D01*
X149795238Y-116602380D01*
X149509523Y-116602380D01*
X149414285Y-116554761D01*
X149366666Y-116507142D01*
X150366666Y-115697619D02*
X150414285Y-115650000D01*
X150509523Y-115602380D01*
X150747619Y-115602380D01*
X150842857Y-115650000D01*
X150890476Y-115697619D01*
X150938095Y-115792857D01*
X150938095Y-115888095D01*
X150890476Y-116030952D01*
X150319047Y-116602380D01*
X150938095Y-116602380D01*
X136880952Y-100904761D02*
X136785714Y-100952380D01*
X136595238Y-100952380D01*
X136500000Y-100904761D01*
X136452380Y-100809523D01*
X136452380Y-100428571D01*
X136500000Y-100333333D01*
X136595238Y-100285714D01*
X136785714Y-100285714D01*
X136880952Y-100333333D01*
X136928571Y-100428571D01*
X136928571Y-100523809D01*
X136452380Y-100619047D01*
X137261904Y-100285714D02*
X137785714Y-100285714D01*
X137261904Y-100952380D01*
X137785714Y-100952380D01*
X138166666Y-100952380D02*
X138166666Y-99952380D01*
X138547619Y-99952380D01*
X138642857Y-100000000D01*
X138690476Y-100047619D01*
X138738095Y-100142857D01*
X138738095Y-100285714D01*
X138690476Y-100380952D01*
X138642857Y-100428571D01*
X138547619Y-100476190D01*
X138166666Y-100476190D01*
X139642857Y-100952380D02*
X139166666Y-100952380D01*
X139166666Y-99952380D01*
X139928571Y-100666666D02*
X140404761Y-100666666D01*
X139833333Y-100952380D02*
X140166666Y-99952380D01*
X140500000Y-100952380D01*
X141547619Y-100047619D02*
X141595238Y-100000000D01*
X141690476Y-99952380D01*
X141928571Y-99952380D01*
X142023809Y-100000000D01*
X142071428Y-100047619D01*
X142119047Y-100142857D01*
X142119047Y-100238095D01*
X142071428Y-100380952D01*
X141500000Y-100952380D01*
X142119047Y-100952380D01*
X142547619Y-100857142D02*
X142595238Y-100904761D01*
X142547619Y-100952380D01*
X142500000Y-100904761D01*
X142547619Y-100857142D01*
X142547619Y-100952380D01*
X143214285Y-99952380D02*
X143309523Y-99952380D01*
X143404761Y-100000000D01*
X143452380Y-100047619D01*
X143500000Y-100142857D01*
X143547619Y-100333333D01*
X143547619Y-100571428D01*
X143500000Y-100761904D01*
X143452380Y-100857142D01*
X143404761Y-100904761D01*
X143309523Y-100952380D01*
X143214285Y-100952380D01*
X143119047Y-100904761D01*
X143071428Y-100857142D01*
X143023809Y-100761904D01*
X142976190Y-100571428D01*
X142976190Y-100333333D01*
X143023809Y-100142857D01*
X143071428Y-100047619D01*
X143119047Y-100000000D01*
X143214285Y-99952380D01*
X143519047Y-102996428D02*
X144280952Y-102996428D01*
X143900000Y-103377380D02*
X143900000Y-102615476D01*
D12*
X150330000Y-104330000D02*
X150330000Y-101670000D01*
X147730000Y-104330000D02*
X150330000Y-104330000D01*
X147730000Y-101670000D02*
X150330000Y-101670000D01*
X147730000Y-104330000D02*
X147730000Y-101670000D01*
X146460000Y-104330000D02*
X145130000Y-104330000D01*
X145130000Y-104330000D02*
X145130000Y-103000000D01*
X146730000Y-106000000D02*
X136880000Y-106000000D01*
X136880000Y-106000000D02*
X135880000Y-107000000D01*
X135880000Y-107000000D02*
X135880000Y-129700000D01*
X135880000Y-129700000D02*
X159580000Y-129700000D01*
X159580000Y-129700000D02*
X159580000Y-106000000D01*
X159580000Y-106000000D02*
X148730000Y-106000000D01*
X154200000Y-136870000D02*
X154200000Y-131670000D01*
X143980000Y-136870000D02*
X154200000Y-136870000D01*
X141380000Y-131670000D02*
X154200000Y-131670000D01*
X143980000Y-136870000D02*
X143980000Y-134270000D01*
X143980000Y-134270000D02*
X141380000Y-134270000D01*
X141380000Y-134270000D02*
X141380000Y-131670000D01*
X142710000Y-136870000D02*
X141380000Y-136870000D01*
X141380000Y-136870000D02*
X141380000Y-135540000D01*
X137535000Y-146035000D02*
X137205000Y-146035000D01*
X137205000Y-146035000D02*
X137205000Y-139495000D01*
X137205000Y-139495000D02*
X137535000Y-139495000D01*
X139615000Y-146035000D02*
X139945000Y-146035000D01*
X139945000Y-146035000D02*
X139945000Y-139495000D01*
X139945000Y-139495000D02*
X139615000Y-139495000D01*
X141345000Y-143715000D02*
X141345000Y-145365000D01*
X141345000Y-145365000D02*
X159245000Y-145365000D01*
X159245000Y-145365000D02*
X159245000Y-140065000D01*
X159245000Y-140065000D02*
X141345000Y-140065000D01*
X141345000Y-140065000D02*
X141345000Y-141715000D01*
X141345000Y-141715000D02*
G75*
G02*
X141345000Y-143715000I0J-1000000D01*
G01*
%LPC*%
D13*
X140227600Y-102617000D03*
D14*
X155467600Y-135637000D03*
X140227600Y-105157000D03*
X155467600Y-133097000D03*
X140227600Y-107697000D03*
X155467600Y-130557000D03*
X140227600Y-110237000D03*
X155467600Y-128017000D03*
X140227600Y-112777000D03*
X155467600Y-125477000D03*
X140227600Y-115317000D03*
X155467600Y-122937000D03*
X140227600Y-117857000D03*
X155467600Y-120397000D03*
X140227600Y-120397000D03*
X155467600Y-117857000D03*
X140227600Y-122937000D03*
X155467600Y-115317000D03*
X140227600Y-125477000D03*
X155467600Y-112777000D03*
X140227600Y-128017000D03*
X155467600Y-110237000D03*
X140227600Y-130557000D03*
X155467600Y-107697000D03*
X140227600Y-133097000D03*
X155467600Y-105157000D03*
X140227600Y-135637000D03*
X155467600Y-102617000D03*
D15*
X149000000Y-103000000D03*
D16*
X146460000Y-103000000D03*
D17*
X156620000Y-111500000D03*
X156620000Y-114040000D03*
X156620000Y-116580000D03*
X156620000Y-119120000D03*
X156620000Y-121660000D03*
X154080000Y-108960000D03*
X154080000Y-114040000D03*
X154080000Y-116580000D03*
X154080000Y-119120000D03*
X154080000Y-121660000D03*
X154080000Y-124200000D03*
X154080000Y-126740000D03*
X151540000Y-126740000D03*
X149000000Y-126740000D03*
X146460000Y-126740000D03*
X143920000Y-126740000D03*
X141380000Y-126740000D03*
X156620000Y-124200000D03*
X151540000Y-124200000D03*
X149000000Y-124200000D03*
X146460000Y-124200000D03*
X143920000Y-124200000D03*
X141380000Y-124200000D03*
X138840000Y-124200000D03*
X138840000Y-121660000D03*
X138840000Y-119120000D03*
X138840000Y-116580000D03*
X138840000Y-114040000D03*
X138840000Y-111500000D03*
X141380000Y-121660000D03*
X141380000Y-119120000D03*
X141380000Y-116580000D03*
X141380000Y-114040000D03*
X141380000Y-111500000D03*
X151540000Y-108960000D03*
X149000000Y-108960000D03*
X141380000Y-108960000D03*
X143920000Y-108960000D03*
X146460000Y-108960000D03*
X154080000Y-111500000D03*
X151540000Y-111500000D03*
X143920000Y-111500000D03*
X146460000Y-111500000D03*
D18*
X149000000Y-111500000D03*
D16*
X142710000Y-135540000D03*
D15*
X142710000Y-133000000D03*
X145250000Y-135540000D03*
X145250000Y-133000000D03*
X147790000Y-135540000D03*
X147790000Y-133000000D03*
X150330000Y-135540000D03*
X150330000Y-133000000D03*
X152870000Y-135540000D03*
X152870000Y-133000000D03*
D19*
X138575000Y-146575000D03*
D14*
X138575000Y-138955000D03*
D13*
X142675000Y-146525000D03*
D14*
X157915000Y-138905000D03*
X145215000Y-146525000D03*
X155375000Y-138905000D03*
X147755000Y-146525000D03*
X152835000Y-138905000D03*
X150295000Y-146525000D03*
X150295000Y-138905000D03*
X152835000Y-146525000D03*
X147755000Y-138905000D03*
X155375000Y-146525000D03*
X145215000Y-138905000D03*
X157915000Y-146525000D03*
X142675000Y-138905000D03*
M02*
